<mxfile host="app.diagrams.net" modified="2023-11-21T16:04:10.594Z" agent="Mozilla/5.0 (Windows NT 10.0; Win64; x64) AppleWebKit/537.36 (KHTML, like Gecko) Chrome/119.0.0.0 Safari/537.36 Edg/119.0.0.0" etag="-kBdE4nvHNtrDaNbL9MC" version="22.1.3" type="device" pages="2">
  <diagram name="Страница — 1" id="o3sYmgAIau1fM3dsohi6">
    <mxGraphModel dx="1911" dy="988" grid="1" gridSize="10" guides="1" tooltips="1" connect="1" arrows="1" fold="1" page="1" pageScale="1" pageWidth="3300" pageHeight="2339" math="0" shadow="0">
      <root>
        <mxCell id="0" />
        <mxCell id="1" parent="0" />
        <mxCell id="0foSG4I520p3zmjoovhV-40" value="" style="shape=image;imageAspect=0;aspect=fixed;verticalLabelPosition=bottom;verticalAlign=top;image=data:image/png,iVBORw0KGgoAAAANSUhEUgAAA5AAAALoCAYAAAAOSho8AAAAAXNSR0IArs4c6QAACf90RVh0bXhmaWxlACUzQ214ZmlsZSUyMGhvc3QlM0QlMjJhcHAuZGlhZ3JhbXMubmV0JTIyJTIwbW9kaWZpZWQlM0QlMjIyMDIzLTExLTIxVDE2JTNBMDIlM0ExMS45NTRaJTIyJTIwYWdlbnQlM0QlMjJNb3ppbGxhJTJGNS4wJTIwKFdpbmRvd3MlMjBOVCUyMDEwLjAlM0IlMjBXaW42NCUzQiUyMHg2NCklMjBBcHBsZVdlYktpdCUyRjUzNy4zNiUyMChLSFRNTCUyQyUyMGxpa2UlMjBHZWNrbyklMjBDaHJvbWUlMkYxMTkuMC4wLjAlMjBTYWZhcmklMkY1MzcuMzYlMjBFZGclMkYxMTkuMC4wLjAlMjIlMjBldGFnJTNEJTIyb05sbzJzVlM2MWxzZ0hRTHVSR0ElMjIlMjB2ZXJzaW9uJTNEJTIyMjIuMS4zJTIyJTIwdHlwZSUzRCUyMmRldmljZSUyMiUyMHBhZ2VzJTNEJTIyMiUyMiUzRSUzQ2RpYWdyYW0lMjBpZCUzRCUyMlkweTNjS3YtNEEyYUlNSElhMGtpJTIyJTIwbmFtZSUzRCUyMlBhZ2UtMSUyMiUzRTdadGZsNW82RU1BJTJGRFklMkI3aHlRSSUyQm9qQSUyRnJtMzZqMHUyJTJGYVZTbFk1RjhHTHNicjk5QTBoVVRCcFMxdWkxYjAlMkJJQTRod0c4bXcwd3lHc2hiN3U2TGFMVVk1VEZPRFdqR093UDVCb1FJT0NiOUtpV3ZsUVFpazB2bVJSSlhNbkFRUENWZk1CZUtacHNreHV0R1E1TG5LVWxXVGVFc3p6SThJdzFaVkJUNXR0bnNKVSUyQmJWMTFGY3l3Sm5tWlJLa3MlMkZKREZaVk5KJTJCenp6SUgzQXlYNGdyQSUyRkY4eTBnMDVvTDFJb3J6YlUyRUFnTjVSWjZUYW0lMkI1ODNCYTBoTmNxdlB1dm5GMGYyTUZ6a2liRTJCMXd1Y28zZkJuNCUyRmRGWHNYREZ2a21pM0haM2pUUWNMdElDSDVhUmJQeTZKYnFsOG9XWkpuU1g0RHV5dGZudCUyRlFaRndUdmFpSiUyQlAlMkZjNFgySlN2TkltJTJGT2hOVDlEaTVuR0RiQzdZSG1BUGhDMHNhcUFkaXdzanJ1RDV2dmNEQTdyRE1haVJvS3RDc2plOTMwRmlYUUFTMkQ4bGtYNnZZeVJyVXVUJTJGWWk5UDg0SktZdndTYlZKNnc4T1hQQ1BjQVFKNFNtdnFhME5uUyUyQmllbndMNlpicWhnVndKSTMwcThqMVdXWjdoRWxTU3BrZWlLRTNtR2YwNW82d3dsUTlMUmdsMTR5NCUyRnNFeml1THlNVWpsTjlaMU5EN1pDRDZnTE5UZ1hiTUVXYkVGT293bjNKWGJ1YyUyRmd3bVRMN05RMkt5MlhiWWJWMURFcW9YNWNBdGcyWUhMS3R3eVI5dG5YNWZ0WFZvT3FRSXJFWjBFOEYzWnNUaHRMJTJCYjFPR0NzT0huTEFnNnlGZnJ4SkNEWiUyQlV1RVpSUmtPUlpRbDYzMUxEJTJCRXJ4QyUyRm56Umxjckd3RXFHJTJCa2lpdWdQSkJQeDNUQ29EQVNDV3dCdTZUZDZNOXJZUSUyRjJ1TmdEUW80MkJLV25qbiUyQm5rcjhBTER5UDJNTXpNJTJGOGZWVDQwcm9OQ2tvJTJCbTFOUUNTSnFmQmU2WkZPMXFXQkxKUDZ4VjdWUE5ZQksyM04lMkJ6UTRMWjNyQzVIaUJwRFQ1TWpISFNkWXJhTk0lMkJxNk1zb3BodkxURVZiUXhwdkJua3hVeUg2TGFOY1o2aWtqTjVrY2tvMVJHN211RTluemtsUDRYVzNrTGpuZmxjanQwJTJGZFRrSlBUM2NzaFp4JTJCJTJGTzFSdXpsU1E2eVROR3NncDZvZko5TyUyRkg4ZjFwQ0I2OTJqc3hSZENDS09qcnNrVTViJTJGV243bDE0UlRnVmJ4TjlPT1VjYnhwNGs5RW9HUHVCZjBWUVZRRyUyQkxxaDd6MUhQMVo2SDd4NDlOM3ljakslMkJIcXVvbHBKR3FuRGRkS2txbnpVeUNwVWhudWdGNXJuem1CQ0JWemxNZnlIT2xNU2NBcVhLWSUyQmtDZUs2dlJEMUxwSSUyRldCbEpPY2FlRDZ3VlRDZWJWclVtMThxMnBGcWh2JTJCY3FyRTVzemZESDBvTHdoQ3hWeWRQZ1hJQWExWWRGcXZvcXloQlRIdlhXSzRXVE1PMWRMR2FtZlVWNmJFV3BWcmlxN29iVlM5aVVXc0M4bUdmejN3NkNRYjNzJTJGUTFyVGpUY1poOEZIVHN2a2ZPYVBkU2dtT0tvcnVSQVdLS0pvdEhmVzBXekVFOHB6MkhmdDBsS0MwS2FoUkxwZDJaTjFuaUt0MU13WE9qNUZDalE1RERnekhFeiUyQjRqQ0liNjRSbXJhdkdacCUyRnoxelh3UEJwZVJFVFprUUxhakFGN29JdiUyRk9TYmZMYjFPQmFFbTBMYkZlOTI4QU9VcCUyQmZBeGZQZkdmQXFDNSUyRlFwOGlUJTJCVHdmcDhCdEJPcXVBc1ZnOUdtSTFhTDZvUjZNU1cxU28wZjA3bzE0bGN5aWZHVnBzNjlXSzJmemFhYUJXOEdiVzVLWW9oNk5iV0N1VDgydjk5TXBMOGs3a0Rsa0RmbWtxYVQ1YnE3VGplczBWSHJKSTRUTVVFMVJJVmJMekN4VWc5T2ZoJTJGd3ZzV08xdklDajRDZyUzRCUzRCUzQyUyRmRpYWdyYW0lM0UlM0NkaWFncmFtJTIwaWQlM0QlMjJzdG1kaEhnbGVfc0w0SGFqSkJqSCUyMiUyMG5hbWUlM0QlMjIlRDAlQTElRDElODIlRDElODAlRDAlQjAlRDAlQkQlRDAlQjglRDElODYlRDAlQjAlMjAlRTIlODAlOTQlMjAyJTIyJTNFblpLeERvSXdFSWFmcG52dEVhS3JGWFZ4WW5CdWFJVW1oU09sQnZUcEJRdGl3MEEwYWRMayUyQjclMkZjWFM4bHdNdnVaRVZkWEZBcVF4aVZIWUVEWVd3VHM2aSUyRkJ2THdaQnRSRDNLcjVTak5JTlZQTmNKSnUydXBta0IwaU1icE9vUVpWcFhLWE1DRXRkaUcyZzFOMkxVV3VWcUFOQk5tU2E5YXVzSlRBRXJuNEt4MFhveXQlMkIyam5rMUpNOXFnMmhaRFlmaUZJQ0lzSmcwNFEySk9CaFFlNFJYU3IyaVNYSFZkbTJQNjBXTiUyRjMlMkJIJTJCQnolMkJPdHF0eHZOWUgzMXNyNGJ5ZjRPWkM4QUElM0QlM0QlM0MlMkZkaWFncmFtJTNFJTNDJTJGbXhmaWxlJTNFO8v2YgAAIABJREFUeF7s3X+wfVVdP/5NTaaGYEyTOEBTMCkxCSpZQaQlgvWHDUgQ/kJAA0RgNIQhECzwB6OSDSI/1JAAFSWVqZlMCH+FYJE/kCJ1hCxA0JlQUZqycd7fee2v637W3e997jn33r3OPWftx5lpwvc9Z+29Hmvts89zr7XX3qHxIkCAAAECBAgQIECAAAECMwjsMMN7vIUAAQIECBAgQIAAAQIECDQRILdxIECAAAECBAgQIECAAAECUwR2aAPktm0y5Ea7yg477BCAG/24zxEgQGCiQHy/zOPlO2weyraxVQLO01slv5zbHVt/GVt9l7NXLs5e/+h3iQC52SZx4G1W0OcJEJgkIEDqGwQ2L+A8vXnDMZUwtv4ytvqOqS+XqKsAOZCqA28gSMUQILCdgACpUxDYvIDz9OYNx1TC2PrL2Oo7pr5coq4C5ECqDryBIBVDgIAAqQ8QKCDgPF0AteIix9ZfxlbfirvuXKomQA7E7MAbCFIxBAgIkPoAgQICztMFUCsusq+/vOUtb2nOPPPMVbU+7LDDmquuuqrZeeedV/37K17xiubBBx9c+duHP/zh5ogjjugV+9CHPtTcfffd25Udbz7ppJOayy67rLh0t77d/X3zm9/cnHHGGav2Y6333HvvvW19999//1X7H4b33HNPc+GFFzbHHntsc8MNN2xXtzB9wxve0P799ttvX/X3vfbaq7nmmmuaBx54oPWK/z7ggAPa99x2223NS17ykib29aabbmouv/zy7cp+xjOe0YT3HnvsUdy05g0IkAO1rhPTQJCKIUBAgNQHCBQQcJ4ugFpxkZMC5K233roqMHaDYgoyEWLiFSEnBZzEFZ+JVx4MI1h1y54nb17fCIZ5OPvud7/bhrkDDzxwJUTG/l5//fUrYSy9Z9ddd23rlQLkQw89tCrkpQCZ1z2C32mnndZcfPHFK1bp82eddVbz/Oc/v5ciN4s3dPcx/m2WcubpXMu2BMiBWtKJaSBIxRAgIEDqAwQKCDhPF0CtuMhZA2RfQIlgk14x2tYdQVzkANkXFlMoPu+885orr7yyrdrxxx/fnH/++avCcVikf999993b/45A+f3vf38ldA8ZIPN9jX3qC+Dd9sn3sRvsK+7Og1dNgByItO+Lpu+q1KQrIesd0u9ekek7IGeZWtCdGjBpKkaXKerWnRow72kB6Ysjn/7QN8VioCYuUkz3Kl++kVmmjxTZKYUunMA8F9GJY3vPPfdcucqcpgSdeOKJq/4tv1rcPRa73wWpjJiilb/yqVl9P6ji32IaUkxRuvrqq1f2q2+fotzuvtfwHbFwnXGJd6jvPJ3OyWudCyf1324/747AJKq+z6dpeOkHbN85NT6fzml9f++WscRNs5C7PmuA7H73RD845ZRTmpNPPrmJEJW+K/Mpk4scIPtGA7sNFL9P4nu5O3U3D3RHH310GyBj2msE6JhaGiOJQwbIFGyj7Hjl01nTPhuBLHN4CZADuXa/aOIA7Ju+MC1AbnRIv3tAzjq1IA+ik6469RFN+vLru9I2EPF2xbzmNa9p59cv6xWkdJKJiu27776r7i2YZfpIKVflLp7APANk97sk+uKb3vSmZu+9924uueSS9j6f/MfDww8/3B6HRx555Eof7vbfWaYndb9Tuhfg8nCYfpDvsssuq+5lyd/Td/+NHxKL17fnuUdrBci1zoWz/KCOeqTjIv47puKlwND3+e4x0ndOzW0WMXDMs+22YlsbDZDR3pdeeunK92W03SGHHLJqGuak9uzeXxn1jvv1Jk3hHNIl1Tf2P400TrpPcFKAzMN0CpAxShn3K8Y9j1GX6667rr0Hctbfu9MGOtJv19h2372ovveH7CX/r6yJAXLSF2b3Cm/3huJ8BKjvZuPYdLrqvJ6bkdMu913hm3Tlbp4jYt0vmknTF+YRICcNz3enFsSPvrVGMtf6Eun78su/UG6++eZVN4unL8D8SmzqB2k7++23X3PRRRc13auqeT9Jf4uren/xF3/RfPOb31wZCc37XnfkIbYfr+4N7NFH4ov98Y9//MqP39THTzjhhJWriBFS82MiykoniKhrfDHGF1f80I6rjt3394XcdJKJK2dRx5gWEl/Ws0wfcfN3mS/ERS11ngGye9zH8RAXOOL4TtOV0vdbXFnuu5ocjvm/z3I+yb9T+u4F6gbI+IGz4447ttOj0g+R/D2T7ieatL+L2vb2aziBWQPkrP23u2cpKMSoeXcUv3t/V/qhHf8/+u9GAuQsP/SH0xtfSbMGyO45u++3bXchnEW8IJAHyL7+mveA9QbI+A2Uvp+jnPUEyLXugUzH6o033tju3qGHHrrdQj8CZJljd1MBsjvKlRopXYmedkPwpB8J+apV3WpPusIX79vKTpJ/0aw1fWEeAXLWqQXdALnZEcj0hXjMMcesuhk6tXNckY0vpQhMBx988Eo4i7aLf4sgFyfSvF+kcJZWzMq3EZ9J0+q6rvnoRZSR3wze9cl/DOdXz7oBMp9OlwLkG9/4xubss89uQ+M+++yzKnDm7+8LkPl28yuUs17tLvOVoNRFFJhngMy/v/I+HVNI4xiNYzcWKkjHcfrv7hXyOM7SFef77rtv6gIJ6diOH975wgypPfoC5AUXXNCce+65K8E2v/jTt5jCIratfZqfwKwBsnsunOU7Oc5B6Ud39Pd8BGrS5/NzUfxITmGyT2QRA8f8Wm5rtjRrgMx/f8RF6e5vq76L+ovYnqm+k34L5n08WmTWeyDThcd0HMRslrj4N+sI5FoBsnthvy/4bmU22JqeO5+tbipATjsA3vnOd665olRfgJzW0JOu8PUFyHneKJt/0aw1fWGoANkd0o/6pytcs14Zii+5bjmzLhfdN+o76f7Jvv1JX1DxI/SJT3ziqh+Xa7VbGj2IkNqdYtG9jzTNt+9+GW4kQMb0i4985CPtURlhMQXIuNoVN23HF2H+w7v7/m6AzN8bf4t9iqvWUY6ryvP58lumrcwzQOYXUQ466KBVI+3RR+OCSTpJ77TTTithshsg834cP6jjeOzeA5nPGsi/U/pmj/QFyBi1j+lQaeGE+KERATQu/nSDbV7+rPd6L1Mfsa/TBdZzD2R+LpzlHt78O7z7/T5rgOyuK5DPxuk7585zltV03freMWuA7F6wThfO0kyhvkA27fdz95Eg89DN6zvpNpp8xscst0p1Q2Yane3+1pzlNoeuQXfQKv6+kVwxD9sat7GpAJkW+Zh0Mt7ICGT+46X7vJm1rvD1Bch5Nlh+4K01fWGoALnW1NP1BMhUzixXWHPPWabb5CfDvI+kftOdwpqmcOYBMkZAus8Jis9FgMyv8Ma+pRN4/MDtXgHMf3x2fbr/uzuFNX74xo3Z6f+nABn/+ylPecrKnPv0o6Hv/d0A2feDJP0Y6ButmWdftq3FE5h3gEzHUow4RuiL7+J8ynUcD3E/ZLwmjUB2A2R+ZTgfnUw/suK4+9znPtfeIxMj+92ZKJMCZB5i09TBFCDzJedTq671/bh4LW+PhhSYZQSy71w4y/mxL+ClCySTPp//RlrPCOR6ZgsN6Te2siYFyLWeAznpt1E3bE0KkH33QM7rgle3vt2F/PoGGLrvyS8K9g0GrLXQ1KTHePQNmMQ5KN2alN/32Fe+VVjLHLmbCpCxS917zfKOPukeyHQ/3KSAmf9QyKu91hW+RQmQfQGxLxCl0bFUv74vk/Vckcnv69noPZDdL7i1utxaAbL743DSD7bUzjHKkX9x5PW+5ZZbVo1ip3rmoyDpB+hGRyDTRYs88MaXYJrCGleB417LuKqYVlaLz0SATWEx/ZiOv/e9f5ZnQE2bfpdfQHEPZJkvxEUtdd4BMvpahLhYev3www9vF3CI7/r4kRv3Q8a/pwt8G70HMr9qH1fb8++USVfs031l3VH69J2z2267rTynbNL5RYBc1F5efr9mCZBpFCOfRj0tQE4KnWmWzKSLgnmfn+WibOxbmvaXLkLGuWoeC6yUb53F20Jff1m8vRxuj8ZW3+HkxlnSpgNkly3/EtzICORaV9bWusK3KAGy78p6t07dH06TTgQbDZB9J8DuVZm+oLueq5qzBsg0OhD79IY3vKE555xzVlanywNkfj9j3m/yadBptcf9999/ZdGB9IOyG5q7U0rWugeyrw/n0+DuvPPOdgQyvx8sBcgIjrGP8UqjHn3vzwPkWqPQaSpe977NSVftSn9tpX3tXgHsWxWuu4/di0v5vsaFpugPMXrVLXuWpenXunCVtjPrFPZJ75s2lbh75TU3yd3yi2rdkef8am3+t+7UtHkHyDSaHkExX00yVj5+5JFH2hkAqU/3TSPqTn+a5bus+53S/V6cNAKZj2DGRaBkmvYrfV/k54gImn2r9ZU+npS/tQKzBsj13gM5bdpc9zaNUOgeI+sNkOk8v5UPnt/a1iy/9bEFqrHVt3wPqnsLEwPkWkPPMS2ou8BIYsqv7g55D+S0K3zxI2La/ZMlmzIdeOuZvpCPePX9IJ/lR1eqU98owLSpBX2rsOYntSh70lLOa53s8h/3EQZOP/309mSZ7ldKUzTSD+u77rqr3U7cVB3PdMx/POc/xOPfjzvuuCZW24off/HKp7dOW4U1XaWdNgIxaSQwv68lD5ARbGOef9QrRiXTtLnufTD5MdK9RyL+1v3BPMv0kZJ9etJFmUkXPJJrfC4PHaluk6anTFthra+O+QJEfRc+Ur956KGHep8LlYfMOA6670t17D4mIv9c/myv/MJRumiS+kE6VvIR7O4qvd0FmLo/SOcdICf9OO27QBbv7Qb6vudA9i1ukM96iBHPeOULK6RZLPH9mK9s2Rfu+4JslNe98Lhsz4otfYyPqfxZA2Q34MX/7ruHN85v0V/z7/3cM13IjNse4r/ze4BnfQ5kmjbYd86d1OfH1KYl6zq2QDW2+pbsO2Moe2KA7Bvx6F4x6/7I6X5mIyOQ3dG5PCB1r7T1zWvuC0XzaEgH3saVp430bLxkn9yswCyjpelm/zh245657hL2Gw2Qs44gdsNOXJCIH3vpwkVaAa5rkUJi933pey6/8DFtynDuFOEpXzhgWujqu0+ve0xsRYDcbN/xeQKLJuA8vWgtstj7M7b+Mrb6LnbvW/y9mxgg+64q900t697nmN9kO+keyDTyFCOUa92MnPimTWtNiy2kKY5pRGM9P0A321QOvI0LCpAbtyv9yUkBsttm0xa4Ws9o+kbqNOnqfN8y493yNzqFNS8nr1/8ez5yP+n+qbVmTCzCCORG2sFnCCyygPP0IrfO4u3b2PrL2Oq7eD1uufZozQC5XFXZ2r114G2tv62XEZg1QE5b4GqtANm9B3K9K85NGuGb9QLSZgNk32Ni8inKkwLkWlPSwiSf1m4Eskz/Vuq4BJynx9Xem63t2PrL2Oq72f4x9s8LkAP1AAfeQJCKWSiBSQGyG9qmLXBVagSyO60+x5tHgOyb6t8dne2r+6Sp+mn/u+4C5EIdFnZmSQWcp5e04bZot8fWX8ZW3y3qVtVsVoAcqCkdeANBKmahBGa5BzLuOewukDJLiNrsolfTHjtTOkBOWsCiu92+BXbyhzH3NXh3VFOAXKjDws4sqYDz9JI23Bbt9tj6y9jqu0XdqprNCpADNaUDbyBIxSyUQF/I667COm0J+1j9dugRyEnTVuc1ArnWfdl9j+2J/YrVGietXtwNnV0vAXKhDgs7s6QCztNL2nBbtNtj6y9jq+8WdatqNitADtSU6cBLjxdICw7F4yZiUZ/0AzJtbtaFYyY9pLu72/kz0vK/TfpxP8viIhuhyfdj0j7l5aYf27FqZjwrK3/w8qRHiKw1YpOewZg/dzEt5jSW5fvzMBJWscR89MFXvepVzaQVSSe1df4Ylfw96f68WRe46hulnFR2bCfK765mmm+/b8ps997JvhHIvj456z2QXde+Zf2TS163tF9pka/uPZ+pX3afEekeyI18A/kMgckCfiDrHesRGFt/GVt919MXvHd7AQFyoF7RFyDjcQaTRh1qDZDdH/l77rlnc8YZZ0xUzgNkek5jvHlWn1RwKud73/te89znPndlm+lZjF/+8pebo446as19GagrbHkxkwLka1/72u2ez7jlO2sHZhIwAjkTkzcRWFPAD2QdZD0CY+svY6vvevqC9wqQxfpAOvBial28YjTti1/8YjtlrW/aWt89YmlEIz2EO0Yq4rmW8UqPR8lHKfKHdW9mBLL7EPB85CMf6cn3IUYH99tvv+aiiy5q8se7pP2IfU6PaIkRlhNOOKE59thjmxtuuKGtTxqVif+Of89HIF//+tc3p556ahP1jzo++clPbvbdd9+V8Jc/RL4bIGOf4mHNl1xySRPPJwyvGIGLVyqjO/LVrdeOO+64sp+5Rf5YmrzO3dGm73//+ysjfZPaK/rJNddc08S2rr322raeMUoYZrH/+WhpvDf1g65b3Et3+eWXr/SRWP0zOcc+vvWtb2374atf/ermbW97W/v/03Mbix0MCh5cYF4BcvAdVyABAgSWWGDbtm1LvPfr23UBcn1eY3+3EciBesBaB960ABm7EAHhyCOPbENSvkJjPCvznnvuaUcyu/ej5e+L8NE32jfLFNa8nJtvvrkNMRFuHnjggfb/xzTceJ1yyinNySef3P53BL54aHzsV76NfD+601njc916HHzwwdsFyCuvvLK57777VqazRpDs2498mmoKwYceemgTgStN1UxhMwzDJwXZ9PD27vP7ol4nnnjidu0QLvmjGfI2zf87tnfFFVe0+7v77ru37ZqeS9p1jr9FQE0G999/f/u/o75pW+GQFqjZZ599WqsIjSkohmm0T95usd1SU5QHOlwUs06BeZzY57GNdVbb2wkMKqCPD8pZfWFj6y9jq2/1HbhwBQXIgYCnBcg0SpRvLo0g5mFpjz32WLXgyC233LISILsLh+SjmG984xsnBsg0EphvO42gpVASwSmmkOb3tOX3ceajVt0FPvIpk1dfffXKfkwaFc2nrc4SIGO/U4gKqxhRTCOMqU55mTF1OIXFFHrz/codutM989VE0yhhBLTuqF26N/Xss89eFdby8iKAd58HmO7rzENitHlulbfrdddd19x6661tSIx9SPt08cUXtyYpCOfbFSAHOqgXqJh5nNjnsY0FIrUrIxTQx0fY6Juo8tj6y9jqu4mu4aNN0wiQA3WDaQEyjb6lzeUhoRsm8jDQDZBpKmMqJ4W8SQFp2ghkd5Qsys3DTD5tM1/sI1/gZpYA2V0gJLaTj75NW0Qn9ilGPGN6Z7y691XmATL+HiHymGOOWRnFzAN2PiU03psM47/zeuUBMv6WT8GN/x1TX2MbeejsBshJ7ZWP7kYwXCtAdi8AxIWHCJTnnHNOOxIcwV+AHOhAXtBi5nFin8c2FpTXbo1EQB8fSUMPVM2x9Zex1XegbjLaYgTIgZp+MwFyPSOQaSpnd0Rso/dArjUCmYe07mqpeWjKRyT7RiC700bXOwIZI3QR5j7ykY+0rRXTaPPpq/FveZkRsGL/Ihg+8sgjKwsZxajk0UcfvWpaaXcEclKAjKnE+UjgrCOQk9qrO7q5VoBMU5jzrtpdfEiAHOhAXtBi5nFin8c2FpTXbo1EQB8fSUMPVM2x9Zex1XegbjLaYgTIgZp+MwEydmEj90DmD1JfawprHnxiW93HFky6BzIf/Uyrmeb3QKZ7BafdA9kNkGkEcD0jkOn+z912221lOuekQJWmxcaCPWkRnBTQugEyv2dxrRHIPECmxzHsv//+262yu9Y9kHl75fd1rjUCmd8DGaE5tVWawmoEcqADeMGLmceJfR7bWHBmu1e5gD5eeQMPXL2x9Zex1Xfg7jK64gTIgZp8MwEy3ffYXYU1jbxFuOxbhbVv9dPu1M5pU1gjlExahbX7790prGm10kmrwebPX4x9zVeUDfZ8UZvuFNYUquP/Rwjs3ifYbbbuiFwe1rqfzaflvu51r2vuuOOOVavAxiI+yT6NIObP8Iv6Hnfccc2NN97Yhtn8b6effnpbXlrEJ5+6m7fXrCOQeR+IOifrnXbaaWXxoe4U1jSq3PdMzIG6u2LmLDCPE/s8tjFnNpsjsEpAH9ch1iMwtv4ytvqupy947/YCAuRAvWJMB956n9E4BPGkh70PUfaQZXQXOhqybGWNV2Ae3y/z2MZ4W1DNF0FAH1+EVliefRhbfxlbfZenJy7mngqQA7XLmA68eQfINIqXpswO1GSDFNMdpc1HGQfZgEII/Gi1s9LPI0vfYd3npKYGyJ+J2rcoVrwvzZTIGy0uqqRHA+X3LufPmE3vj+MnHvUTKy2nZ8bmZaXnoHqWqcNiIwJjOk9vxMdnVguMrb+Mrb76++YEBMjN+a182oE3EKRiCBDYTmAe3y/dAJmeXxo7kwJjTGOPKdPdR/nEe7rPqY1/S/dOx3/vu+++q1ZP7ns+brfifdvRPQhsVGAex9FG983nFk9gbP1lbPVdvB63XHskQA7UXg68gSAVQ4DAwgXI2KH8fuq77rpr1eNr0g53V4OOABijiXGPc3w+3V8c7xcgdfR5CzhPz1t8ubc3tv4ytvoud+/c+r0XIAdqAwfeQJCKIUBgIQNkPnW9uzpw7HDfCGSExnjF4l7pWa4xgilA6uRbIeA8vRXqy7vNsfWXsdV3eXvmYuy5ADlQOzjwBoJUDAECSxEg06rR+c6mlZrj3/JH/8S9j3Ev5E033dTe45gC5OWXX76qrvl9lvEHU1gdDEMKOE8PqVl/WWPrL2Orb/09uGwNBciBfB14A0EqhgCBhQyQ+QrD3RHIvtWH+xba6T7yJyqaAmVfswuQDoYhBZynh9Ssv6yx9Zex1bf+Hly2hgLkQL4OvIEgFUOAwEIGyGn3QMYU1QcffLB9Nmqsktp3j2N+j6R7IHX0eQs4T89bfLm3N7b+Mrb6Lnfv3Pq9FyAHagMH3kCQiiFAYOEC5HpXYY2RxiOOOKLJV3KNSuUhNP5mBFJnn6eA8/Q8tZd/W2PrL2Or7/L30K2tgQA5kL8DbyBIxRAgsBAB8vbbb1+1H93nQJ522mnNxRdf3OTPdoyAeP311zcvf/nLm3e/+91NfGaPPfZYKScPonE/pACps89TwHl6ntrLv62x9Zex1Xf5e+jW1kCAHMjfgTcQpGIIENjSAImfQK0CztO1tmyZeo2tv4ytvmV6zXhKFSAHamsH3kCQiiFAQIDUBwgUEHCeLoBacZFj6y9jq2/qup///OebF73oRc2Xv/zl5u1vf3tzyimnrNmrv/jFLzZ/8id/0nzyk59sfvjDHzZPe9rTmle+8pXNUUcd1fwoVFV8VPy/qgmQAzXzWA+8gfgUQ4DAGgLz+H6ZxzY0MoGtFNDHt1J/+bY9tv4ytvqmHhm3XsQjqB7zmMc0T3nKU5prrrmm2WWXXXo7bKw4/qpXvar5v//7v+Y5z3lO86hHPaoNkt/61rea173udc3pp58+mhApQA70nTbWA28gPsUQICBA6gMEigo4Txflra7wsfWXsdU3OuxDDz3UxDONIxDG/fof+9jHmquvvrp59rOfvV1/jpD40pe+tPn617/evOtd72oOOuig9j1f+9rXmuOOO675zne+0342RiTH8BIgB2rlMR54A9EphgCBKQLz+H6ZxzY0NIGtFNDHt1J/+bY9tv4ytvpGj/ybv/mb5vjjj2+OPfbY5pnPfGb73xESY1SyOx01vbfv79dee2376KrzzjuvOeOMM5avs29gjwXIDaD1fWSMB95AdIohQECA1AcIFBdwni5OXNUGxtZfxlbfbdu2tWHvL//yL5srr7yyicdPveAFL2i+973vNe973/uaJz3pSav6c0xRPf/885sPfOAD7f2O+euOO+5o76Pcd9992xXIH/vYx1Z1LEzKPU3T7LBD0zTbAtNrYwJjO/A2puRTBAhsRGAe3y/z2MZG6u4zBIYS0MeHkhxHOWPrL2Or71e/+tXmhS98YfO4xz2uef/739/suuuuzQUXXNCOIvYtphMjjPH4qbhHMn98VRwN9957b/vs47h3MkYjf+Znfqb6g8QI5EBNPLYDbyA2xRAgMIPAPL5f5rGNGarqLQSKCejjxWirLHhs/WVs9b388svbaacxqnjuuee2ffhTn/pUc8wxxzS//Mu/vGoxnRiVjPscYwXWvgAZ9z/G1NYHHnhgu+cfV3lwtEOPMfZoBHLT7Tu2A2/TYAogQGBmge69GDN/0BsJECBAYMMCY5qZN6bfsY888kh7v+NnP/vZduGbZz3rWW0fSf/+8Y9/vJ3W+rznPa/99+9+97vtfZJ33nlnb4BMf7///vsFyA0fbSP94JgOvJE2sWoT2DKBeXy/zGMbWwZowwR+dMV8TIFAo29OYGzfiWOqbxppfPrTn95cddVVzc4777zSWS655JLm1FNPbV7+8pc373jHO9pHdRiB3P5YMgK5ue+XlU+P6cAbiEwxBAjMKDCP75d5bGPG6nobgSIC+ngR1moLHVt/GVN904I4a3Xevffeu3nve9/bRMiMl3sgV2sJkAN99aUDL91Ie/vtt68q+aSTTmouu+yylRttu38/7LDDtrsKEg8sjZty0ysedNq3PHC878ILL2yHzeMVn+mWv9dee60adp9UdhqGv+GGG7aT6dvH7pui3DPPPLN3iH/W+sTyyfFK+xxXh84666z238IwvW677bb2ZueYZhDP75n0mvV9sX8xt717NWqgLqIYAhsWmMeJfR7b2DCADxIYQEAfHwBxREWMrb+Mpb4xzTQWz4nnOf7O7/xO8+hHP3q7Xv2FL3yh+Yd/+IdV90fG7+w//uM/bn9rP//5z1/1GauwWoV1w1+N3QAZgSd1sBTK4mGlsUxwBLy+vx944IErATFC1PXXX78ylzqVEatE5SEqdrgvQOblTwt5qex8+/GZCF6nnXZac/HFF2+34lQCnCxzAAAgAElEQVQfVJRzyimntH+KpYzzsNsNlpO2GZ/NA2SseBX1jSs/AuSGu6cPLrnAPE7s89jGkjeD3V9yAX18yRtwzrs/tv4ylvqmZzYeffTRK1NUu10rPfNxn332aR/psdtuuzUf/ehH2wV2+p4DGfdRxr9PGuiZc9edy+aMQA7EvFaAjE1EANpzzz2b6LDdAJlC0z333LMyShk398bKUPlSwTG62ffv6wmQa4XF7mheN0BOG8mLv1966aVNBOUIgWlkcD3bTIE4/v8Tn/jEdsWrsJslQMb2Y9t33313G9S7I7Lp3+67777t3hcjmEYgBzoYFDO4wDxO7PPYxuAwCiSwDgF9fB1Y3tquMjmme2bHUN8f/OAHzStf+crmuuuua39vv/jFL+7t6Q899FD7O/HTn/70yvu+8Y1vtO+PlVZjBde08M7Xvva1doXWWIk1guTTnva0URw9AuRAzbxWgEzTWmNUcJYRyElBZlIQW0+AXM+o4nrem48cxshjBL5DDjmkHYVdbzl9TTItQMZnIpgfeeSR7chnvP/BBx9sp6PeddddK1Nd0/vSCG3+vptvvtkU1oGOB8UMKzCPE/s8tjGsitIIrE9AH1+f19jfPbb+Mob6fv7zn29e9KIXNT/7sz+7MrI4qZ/HQEjckvWCF7ygefe739089rGPbT7wgQ80r3rVq9qPPOc5z2kX2PnkJz/ZfOtb32rivsrTTz89Pd6i+sNHgByoiafdA5mGtafdI5lG4Cbdi5dGMrvTQ6fdA5nuX8zD1Fr3DcZ+rCf4pemrJ598cjtqGqE2TT+dNnI5SxNEveOKT/eVjyrmI6j5vsdn0t/i3tBkFfXP9y3+5h7IWVrDe+YtMI8T+zy2MW832yOQC+jj+sN6BMbWX8ZQ3xQKX/Oa16zcLjWpT6SwGX/PF9P5xCc+0Vx00UXNLbfc0vzwhz9sRxxjVPOoo44aTXgMEwFyPd8ma7x32hTW9NF8NHLS6NxaUylnDZCT7oFcTyhc73vT9NFU1zzcredeyj7maSOQ3WCYT/ftBsh8YaL4W1qsJ6YlCJDb60+66JEvqpRPH85LSH3gjW98Y/vP3ft3+9p11kOyu81J9x7Mso1JFzniZJOmlk/ql+nCRqprujCT719aRCtdmMmPlXy/08kt3pd/Zh4n9mkXwdbT3skgr0/Uqbv4QHfRrq5hWngrt4hyUp9MZcbxH8f1tPfl09f7+mn6+4knnrjqHu78e7fvYla+3UnHS/qe2X333XsXOutbmGHWY8H7ZhOYx3E025541zIIjK2/jK2+y9AHF3kfBciBWmejATI2310wZ9K9jvm/xzzruKcyRiLXM4V10jTYKDuFvPwH8KzBr+9HevrRdcIJJ7QPYO0u0tO3zUnNMS1Axg+/WUcgJ4VE90D263cvesS7uv1o2sWGvI+m/tVX7qyHY3fEe9L2JwWQfDsp6O2yyy6rHgCcwk83lKTP5qPs8W95H83rdvDBB6/0/zgWYqGpNFLfHSmPe4jjGVTxyo+ZeZzY1/oOW297T/pey+//TkZp2nl8prvYVvzvN73pTc3jH//4Vastd/89AuQs74vvibW+0yb1hW6AzC+GdBc4m9av+/6ethsXE7qr+816THjfdIF5HEfT98I7lkVgbP1lbPVdln64qPspQA7UMpsJkH2hbtoqrPnISPz3rbfe2t7v9/DDD/cu0pNXc9KKqN0VXqeFglTmpB9M+X7F/YX54z3WWlW2r0mmBcj4zEbugcydTWGdPUCmgJBG56b1lb4+kofKGKFMF0Q2ckj2HUPpAkWU17d6cR5Y4r6F2J+08FO6N3a//fZrvvnNb243ctq3j3l9uhc08mMhf2DxtNWIk+88TuzTvsPy75yNtHfyThdw3vnOd/aO7ubbSRd1dtxxx+bwww9fCVfRPk94whOaz3zmM22bpWN32vtmCZBxISrKyfvMWgEy6pV7pBHGSbNAZvm+zPvIRo4Hn+kXmMdxxL4egbH1l7HVt56eujU1ESAHcp/242ta2Op7fuJaz03Mp37lz3icNH0qtp9PkeqW3TfKMusqrH2jS+lHVUzVS1fVZ9nmpOaYFiDT/YzdVVjj37vT3fJpbLmdEcjZA+RGRqS6bdg3HXujh2Pfj/JUfoSweHWnz+bb2ugU1ryM7gWTfKR70jEyKUx0fedxYh9yBHJSfZNX/mij7ohb/tkUDPMgny4MxLEebZoHyGnvmzVAXnDBBc255567shL2tAA57VFNeT+Z1OZD3Cu+0eNnLJ+bx3E0Fssx1HNs/WVs9R1DHy5ZRwFyIF0H3kCQilk4gVkWfpp0D2R+YSIP6DFS3vdImo1WvhtO0yNlYjpojASVDpDdiy3dEcdJgarvwki60JLfDziP75dp90CudR9narf0nmkXY9YKkH0LW4VTejRQhMpYoCuex5UvjhWBfdr7Jt0DmfY733Ys855mdkQfSiPkfW3WFyBjP/NXuod00iwRAXKjR//sn5vHcTT73njnoguMrb+Mrb6L3v8Wff8EyIFayIE3EKRiFk5gloWfpk1pjErl9/DG6mXpx/lmp+vlj2KJsrr3R5ZcRCfq1Xf/WjdA9QXI7n53Gz7/zM/93M8Vfx7ZpBHIvrad1t6bGYHsC5AXX3xxc/bZZ7f3jqb7vw866KDtAuS09806AhmjmjvttFN7H2qMdEZgXStATntU0ywjkNPMFu6LYQl3yHl6CRttC3d5bP1lbPXdwq5VxaYFyIGa0YE3EKRiFk6gb8pd9x7daYEiKpVGaWKa4R133NH+MN/MgiGT7qOdZTS0i7zRKax9U89TqMwXdcpHJOPvEUwm3ZeZ9i03jQWoSj/Qeq0prOtt77WmaaaFgtZzD2Tc3x3vj/tRo++cf/75LVN3BHLa+9YTIGP6ewp1u+2228oiYJOm06fFedwDuXBfYSs75Dy9uG2ziHs2tv4ytvouYp9bpn0SIAdqLQfeQJCKWTiBIVZhTZVKK5t2H9ewkUrPMrIY5c7yvo0EyLVC86RVWGPV5En70x21zENnrEK6lQFyI/e89q0unS90NesqrOle0liIKz7f90zbfAGstd633gCZ+k88qiU9bqXbflZh3cjRuzWfcZ7eGvdl3erY+svY6rus/XJR9luAHKglHHgDQSpm4QQmjSblo2+x093ngMa/5YsUpZG5eN8hhxyyalGb9S6oM+m+zL5nQXYfr9F37+WsAbJ7j1ysLJy/8mCcj4Sme+ym7Xf+3MStvgeyu4roRtq7+xzIbvvM8hzIFCDTvYPpsR99U13zlaj73jfpHsjUT/NRze7jZlJ5G30OZJQdC5lFu0YQ7t4j6TmQ5b/6nKfLG9e0hbH1l7HVt6a+uhV1ESAHUnfgDQSpGAIEthOYx/fLPLahaQlspYA+vpX6y7ftsfWXsdV3+XrkYu2xADlQe6x1/1BsIn+22UCbbIvJr8J3nz03aTtpqlwsOBH37cSIUFwVX++qmGm1yO4jQLqPzUhX8oes96KVlbdvjFDECNvdd9/d+5y7Rdt3+7P4AvM4sc9jG4svbQ9rFtDHa27d4es2tv4ytvoO32PGVaIAOVB7b1WAzHd/1mXg+5bYz1fIPOCAA2ZSiXLe9KY3NXF/VnoAe3xw0r/PVOiSvmlSgIzqxH1vXgQ2IzCPE/s8trEZA58lsFkBfXyzguP6/Nj6y9jqO67ePHxtBciBTNcbINPoXWw+LQoRjyDI/z3dA5WWk4/VK6+99tp2ZCvdS5RC4+tf//rm1FNPbe+rSZ+L/457bdIr3WPTHYGM98TfbrjhhvaetZe97GXNP/3TPzVxP1HsU/5MvfyRC6mcHXfcsTn88MNXVtSMEbgnPOEJzWc+85mVYJnfC5XuN9pnn31WVqOMRSri1X1uYN/+x/tSeVFWBN7Yh/Sg+Pwepa5TGF500UVtPeNvF154YWs26Rl3+X1oUd+0jb//+79fub/vgQceWHGOcvbdd9/mqU99ahP/Hq/NrDQ6UPdUzJILzOPEPo9tLHkz2P0lF9DHl7wB57z7Y+svY6vvnLtTdZsTIAdq0vUEyPy5cQcffPBKiIrnnOXTSCMkxeuEE05o33P//fe3QS9fSTD+npayz6ewdlcbzFd0jFUKY2GKSVNYYxn6vv3ojqSlABmhLJbXj3AVI5lpWmz87xiZjIAWQS32PaazpkVN4t+iXvGKsBr7FYuSxL7FKy2LHwEx3/+77rpr5W9pyfz999+/3X73fTE9N4LiE5/4xHaq7oknntiOCMY+xLPdutvqLsGfP6svre4Y9cjbLW33nnvuWbUwzEBdSzEEmnmc2OexDU1JYCsF9PGt1F++bY+tv4ytvsvXIxdrjwXIgdqjGyC7K+zFZtIo16SHjL/97W9vXvva17bPOMunkXaX0I+y0qqV+cO017oHMt/mtAAZ20738UVQOuWUU9oHeHentqYy470R3FJYjGB2zDHHrATb7j2QabpnCpDxjLsIdWtNo833v/v8uEnldZ26gTQFvny7MWqYh93uSo/53/Jpq6XucR2oeypmyQXmcWKfxzaWvBns/pIL6ONL3oBz3v2x9Zex1XfO3am6zQmQAzXpekYg81GyNEU0H0VMj0NIU1tjF2OkLn/w+iwBsrvcfCpvlgAZgS0FwfTg73z6auxTPhU2Rk8jZF599dXNnnvu2eTBNk3BjSmy6RVhOgXIVK9ugJy0//F4gXil6aTdAJlvJwX3bqDNA183QObTZuPzacpthMv0SIGwECAHOngUM1VgHif2eWxjakW9gUBBAX28IG6FRY+tv4ytvhV22blWSYAciHs9AXLSCGSa4pl2adLIWj4iOWkEsjttdL0jkGkqaoSnuJ+xbyGY7qhgTGO944472hHUeKVQfN111zW33nrryj2V3Xr1BcjuSOB6RiDzoJ0suwsMrRUg85CYd4++B72nUUwjkAMdSIrpFZjHiX0e29C8BLZSQB/fSv3l2/bY+svY6rt8PXKx9liAHKg91hMgJ90D2TdKFruX7oGM/457BfN7APOglk9hzQNkGgFMn59lBDLem98n2LcyazeUxshdGuWMfewLkOlh4HHP4lojkHmA7O7/rPdA5g8ez4N2TKmdFCC790DG+66//vr2/s0wNQI50AGjmHUJ/OiLel2f8WYCBAgQ2JzAtm3bNlfAEn1agFyixlqAXRUgB2qE9QTI2OSkVVjz1Uq7U1h33XXXJq1WmlZUzUfWotw0/TKC5jnnnLOysurpp5/ebjPdp9hdRCctCnPnnXe2ISkCY9/jPnKu/O95WIvRyr79SivEHnfccc2NN964ahGfWKk0n0qaVmhNK8Pm+58CYCy4E6ukPvOZz2weeeSR3lVY032ns45ARr1TwI/VbtP01T6PPIROeibmQN1LMSMXmMeJfR7bGHkzqv4WC+jjW9wAS7b5sfWXsdV3ybrjwu2uADlQk5Q88NKU1b6pmQPtfm8x6T7LRX6OYd8CQyVNlE1gKwRKfr+k+sxjG1thZ5sE9HF9YCMCY/tOHFt9N9InfOb/CQiQA/WGkgfevANk2l7QpGdBDsQ0SDH56G0UmD/DcZANKITAggmU/H7x43rBGtvuFBOYx3FUbOcVPHeBsfWXsdV37h2qsg0KkAM1qANvIEjFECCwncA8vl/msQ1NS2ArBfTxrdRfvm2Prb+Mrb7L1yMXa48FyIHaw4E3EKRiCBAQIPUBAgUEnKcLoFZc5Nj6y9jqW3HXnUvVBMiBmB14A0EqhgABAVIfIFBAwHm6AGrFRY6tv4ytvhV33blUTYAciNmBNxCkYggQECD1AQIFBJynC6BWXOTY+svY6ltx151L1QTIgZgdeANBKoYAgS0NkPE4nXgcUDx2J3+lxarS388666wmHr+TXvljbfJH4aS/xyN34vFD8Rie+Ptpp53WPsqn+4zZvtWf88cbRXnpMUb5/sXiWvFon/QYor59SO9/85vf3HSfDRt/SwuIxeOD4pXvc/zv2I8rrrhiZRvxb/njh/qel6s7L46A8/TitMUy7MnY+svY6rsMfXCR91GAHKh1HHgDQSqGAIGFCJB5QMxXgo5QFQFzWoDsBsQIhvG67LLL1hUgI7Rdf/31K+GzL8DG/p1yyilt+fvuu2/TffRQlHHrrbeuWlW6+2zYVO6RRx658vluKE1BNl/5WYBcngPWeXp52moR9nRs/WVs9V2EPrbM+yBADtR6DryBIBVDgMDCBcjYoTQyePTRR28oQEYYi9HBeDTQXXfdNdMI5KTRzrysnXfeuQ2kl156aRPPyo2Qd+WVV7Yjnek1S4DMR1DzBsj/PZVz//33rwRoAXJ5Dljn6eVpq0XY07H1l7HVdxH62DLvgwA5UOs58AaCVAwBAgsXIPMgt5kRyD333LMd3Zt1CmsExQsvvHBl9HFS14hgF68oO4LuIYccst302rVGIHfaaafm2GOPbQNoPi03ysz34brrrmvuueeetvwUhh9++OHm+OOPb84///ztpuPqyosl4Dy9WO2x6Hsztv4ytvouev9b9P0TIAdqIQfeQJCKIUBgIQJk9x7IuG8wAtpG74E87LDDVqaQridApqAWI419rzR99eSTT24DXAS+m266qZ0qO+sI5FoBMp/qmgJkhNoInAceeGATI7IC5HIctM7Ty9FOi7KXY+svY6vvovSzZd0PAXKglnPgDQSpGAIEFiJAdu9xTDs1a4Ds3gOZj+Tdd999M01hnWUEctqCPbHf06awrjdApvs4zzvvvOaCCy5ozj33XCOQS3DcOk8vQSMt0C6Orb+Mrb4L1NWWclcEyIGazYE3EKRiCBBY6ACZL6iTT/ectkhOfq9gVHCWVVgnhdV0z+Mll1zS3osYr3zEsbuS67QAGfdLznoPZExhTduK7Tz44IPN97//fQFyCY5b5+klaKQF2sWx9Zex1XeButpS7ooAOVCzOfAGglQMAQILHSBj51JwigVx0iI2cf9gTHONUNk3RXUjI5Bp9LBvFdZYLXWtBX3yex5nCZCzrsKaB8j0mYceemjVoz104cUUcJ5ezHZZ1L0aW38ZW30Xtd8ty34JkAO1lANvIEjFECCw8AEyhcjLL798ZV/zZzP2TSvda6+91nxGY/r71Vdf3aTFdlLh3edApvsxJ01xTdtPgXaWABnbmuU5kHmAjM90H/Wh+y6ugPP04rbNIu7Z2PrL2Oq7iH1umfZJgByotRx4A0EqhgCBLQ2Q+AnUKuA8XWvLlqnX2PrL2OpbpteMp1QBcqC2duANBKkYAgQESH2AQAEB5+kCqBUXObb+Mrb6Vtx151I1AXIgZgfeQJCKIUBAgNQHCBQQcJ4ugFpxkWPrL2Orb8Vddy5VEyAHYnbgDQSpGAIEBEh9gEABAefpAqgVFzm2/jK2+lbcdedSNQFyIGYH3kCQiiFAQIDUBwgUEHCeLoBacZFj6y9jq2/FXXcuVRMgB2J24A0EqRgCBARIfYBAAQHn6QKoFRc5tv4ytvpW3HXnUjUBciBmB95AkIohQECA1AcIFBBwni6AWnGRY+svY6tvxV13LlUTIAdiduANBKkYAgQESH2AQAEB5+kCqBUXObb+Mrb6Vtx151K1VQFyLlu0EQIECBAgQIAAAQIECBBYZoEddmiaZtu2bduWuRL2nQABAgQIECBAgAABAgQKCpjCWhBX0QQIECBAgAABAgQIEKhJQICsqTXVhQABAgQIECBAgAABAgUFBMiCuIomQIAAAQIECBAgQIBATQICZE2tqS4ECBAgQIAAAQIECBAoKCBAFsRVNAECBAgQIECAAAECBGoSECBrak11IUCAAAECBAgQIECAQEEBAbIgrqIJECBAgAABAgQIECBQk4AAWVNrqgsBAgQIECBAgAABAgQKCgiQBXEVTYAAAQIECBAgQIAAgZoEBMiaWlNdCBAgQIAAAQIECBAgUFBAgCyIq2gCBAgQIECAAAECBAjUJCBA1tSa6kKAAAECBAgQIECAAIGCAgJkQVxFEyBAgAABAgQIECBAoCYBAbKm1lQXAgQIECBAgAABAgQIFBQQIAviKpoAAQIECBAgQIAAAQI1CQiQNbWmuhAgQIAAAQIECBAgQKCggABZEFfRBAgQIECAAAECBAgQqElAgKypNdWFAAECBAgQIECAAAECBQUEyIK4iiZAgAABAgQIECBAgEBNAgJkTa2pLgQIECBAgAABAgQIECgoIEAWxFU0AQIECBAgQIAAAQIEahIQIGtqTXUhQIAAAQIECBAgQIBAQQEBsiCuogkQIECAAAECBAgQIFCTgABZU2uqCwECBAgQIECAAAECBAoKCJAFcRVNgAABAgQIECBAgACBmgQEyJpaU10IECBAgAABAgQIECBQUECALIiraAIECBAgQIAAAQIECNQkIEDW1JrqQoAAAQIECBAgQIAAgYICAmRBXEUTIECAAAECBAgQIECgJgEBsqbWVBcCBAgQIECAAAECBAgUFBAgC+IqmgABAgQIECBAgAABAjUJCJA1taa6ECBAgAABAgQIECBAoKCAAFkQV9EECBAgQIAAAQIECBCoSUCArKk11YUAAQIECBAgQIAAAQIFBQTIgriKJkCAAAECBAgQIECAQE0CAmRNrakuBAgQIECAAAECBAgQKCggQBbEVTQBAgQIECBAgAABAgRqEhAga2pNdSFAgAABAgQIECBAgEBBAQGyIK6iCRAgQIAAAQIECBAgUJOAAFlTa6oLAQIECBAgQIAAAQIECgoIkAVxFU2AAAECBAgQIECAAIGaBATImlpTXQgQIECAAAECBAgQIFBQQIAsiKtoAgQIECBAgAABAgQI1CQgQNbUmupCgAABAgQIECBAgACBggICZEFcRRMgQIAAAQIECBAgQKAmAQGyptZUFwIECBAgQIAAAQIECBQUECAL4iqaAAECBAgQIECAAAECNQkIkDW1proQIECAAAECBAgQIECgoIAAWRBX0QQIECBAgAABAgQIEKhJQICsqTXVhQABAgQIECBAgAABAgUFBMiCuIomQIAAAQIECBAgQIBATQICZE2tqS4ECBAgQIAAAQIECBAoKCBAFsRVNAECBAgQIECAAAECBGoSECBrak11IUCAAAECBAgQIECAQEEBAbIgrqIJECBAgAABAgQIECBQk4AAWVNrqgsBAgQIECBAgAABAgQKCgiQBXEVTYAAAQIECBAgQIAAgZoEBMiaWlNdCBAgQIAAAQIECBAgUFBAgCyIq2gCBAgQIECAAAECBAjUJCBA1tSa6kKAAAECBAgQIECAAIGCAgJkQVxFEyBAgAABAgQIECBAoCYBAbKm1lQXAgQIECBAgAABAgQIFBQQIAviKpoAAQIECBAgQIAAAQI1CQiQNbWmuhAgQIAAAQIECBAgQKCggABZEFfRBAgQIECAAAECBAgQqElAgKypNdWFAAECBAgQIECAAAECBQUEyIK4iiZAgAABAgQIECBAgEBNAgJkTa2pLgQIECBAgAABAgQIECgoIEAWxFU0AQIECBAgQIAAAQIEahIQIGtqTXUhQIAAAQIECBAgQIBAQQEBsiCuogkQIECAAAECBAgQIFCTgABZU2uqCwECBAgQIECAAAECBAoKCJAFcRVNgAABAgQIECBAgACBmgQEyJpaU10IECBAgAABAgQIECBQUECALIiraAIECBAgQIAAAQIECNQkIEDW1JrqQoAAAQIECBAgQIAAgYICAmRBXEUTIECAAAECBAgQIECgJgEBsqbWVBcCBAgQIECAAAECBAgUFBAgC+IqmgABAgQIECBAgAABAjUJCJA1taa6ECBAgAABAgQIECBAoKCAAFkQV9EECBAgQIAAAQIECBCoSUCArKk11YUAAQIECBAgQIAAAQIFBQTIgriKJkCAAAECBAgQIECAQE0CAmRNrakuBAgQIECAAAECBAgQKCggQBbEVTQBAgQIECBAgAABAgRqEhAga2pNdSFAgAABAgQIECBAgEBBAQGyIK6iCRAgQIAAAQIECBAgUJOAAFlTa6oLAQIECBAgQIAAAQIECgoIkAVxFU2AAAECBAgQIECAAIGaBATImlpTXQgQIECAAAECBAgQIFBQQIAsiKtoAgQIECBAgAABAgQI1CQgQNbUmupCgAABAgQIECBAgACBggICZEFcRRMgQIAAAQIECBAgQKAmAQGyptZUFwIECBAgQIAAAQIECBQUECAL4iqaAAECBAgQIECAAAECNQkIkDW1proQIECAAAECBAgQIECgoIAAWRBX0QQIECBAgAABAgQIEKhJQICsqTXVhQABAgQIECBAgAABAgUFBMiCuIomQIAAAQIECBAgQIBATQICZE2tqS4ECBAgQIAAAQIECBAoKCBAFsRVNAECBAgQIECAAAECBGoSECBrak11IUCAAAECBAgQIECAQEEBAbIgrqIJECBAgAABAgQIECBQk4AAWVNrqgsBAgQIECBAgAABAgQKCgiQBXEVTYAAAQIECBAgQIAAgZoEBMiaWlNdCBAgQIAAAQIECBAgUFBAgCyIq2gCBAgQIECAAAECBAjUJCBA1tSa6kKAAAECBAgQIECAAIGCAgJkQVxFEyBAgAABAgQIECBAoCYBAbKm1lQXAgQIECBAgAABAgQIFBQQIAviKpoAAQIECBAgQIAAAQI1CQiQNbWmuhAgQIAAAQIECBAgQKCggABZEFfRBAgQIECAAAECBAgQqElAgKypNdWFAAECBAgQIECAAAECBQUEyIK4iiZAgAABAgQIECBAgEBNAgJkTa2pLgQIECBAgAABAgQIECgoIEAWxFU0AQIECBAgQIAAAQIEahIQIGtqTXUhQIAAAQIECBAgQIBAQQEBsiCuogkQIECAAAECBAgQIFCTgABZU2uqCwECBAgQIECAAAECBAoKCJAFcRVNgAABAgQIECBAgACBmgQEyJpaU10IECBAgAABAgQIECBQUECALIiraAIECGywGa8AACAASURBVBAgQIAAAQIECNQkIEDW1JrqQoAAAQIECBAgQIAAgYICAmRBXEUTIECAAAECBAgQIECgJgEBsqbWVBcCBAgQIECAAAECBAgUFBAgC+IqmgABAgQIECBAgAABAjUJCJA1taa6ECBAgAABAgQIECBAoKCAAFkQV9EECBAgQIAAAQIECBCoSUCArKk11YUAAQIECBAgQIAAAQIFBQTIgriKJkCAAAECBAgQIECAQE0CAmRNrakuBAgQIECAAAECBAgQKCggQBbEVTQBAgQIECBAgAABAgRqEhAga2pNdSFAgAABAgQIECBAgEBBAQGyIK6iCRAgQIAAAQIECBAgUJOAAFlTa6oLAQIECBAgQIAAAQIECgoIkAVxFU2AAAECBAgQIECAAIGaBATImlpTXQgQIECAAAECBAgQIFBQQIAsiKtoAgQIECBAgAABAgQI1CQgQNbUmupCgAABAgQIECBAgACBggICZEFcRRMgQIAAAQIECBAgQKAmAQGyptZUFwIECBAgQIAAAQIECBQUECAL4iqaAAECBAgQIECAAAECNQkIkDW1proQIECAAAECBAgQIECgoIAAWRBX0QQIECBAgAABAgQIEKhJQICsqTXVhQABAgQIECBAgAABAgUFBMiCuIomQIAAAQIECBAgQIBATQICZE2tqS4ECBAgQIAAAQIECBAoKCBAFsRVNAECBAgQIECAAAECBGoSECBrak11IUCAAAECBAgQIECAQEEBAbIgrqIJECBAgAABAgQIECBQk4AAWVNrqgsBAgQIECBAgAABAgQKCgiQBXEVTYAAAQIECBAgQIAAgZoEBMiaWlNdCBAgQIAAAQIECBAgUFBAgCyIq2gCBAgQIECAAAECBAjUJCBA1tSa6kKAAAECBAgQIECAAIGCAgJkQVxFEyBAgAABAgQIECBAoCYBAbKm1lQXAgQIECBAgAABAgQIFBQQIAviKpoAAQIECBAgQIAAAQI1CQiQNbWmuhAgQIAAAQIECBAgQKCggABZEFfRBAgQIECAAAECBAgQqElAgKypNdWFAAECBAgQIECAAAECBQUEyIK4iiZAgAABAgQIECBAgEBNAgJkTa2pLgQIECBAgAABAgQIECgoIEAWxFU0AQIECBAgQIAAAQIEahIQIGtqTXUhQIAAAQIECBAgQIBAQQEBsiCuogkQIECAAAECBAgQIFCTgABZU2uqCwECBAgQIECAAAECBAoKCJAFcRVNgAABAgQIECBAgACBmgQEyJpaU10IECBAgAABAgQIECBQUECALIiraAIECBAgQIAAAQIECNQkIEDW1JrqQoAAAQIECBAgQIAAgYICAmRBXEUTIECAAAECBAgQIECgJgEBsqbWVBcCBAgQIECAAAECBAgUFBAgC+IqmgABAgQIECBAgAABAjUJCJA1taa6ECBAgAABAgQIECBAoKCAAFkQV9EECBAgQIAAAQIECBCoSUCArKk11YUAAQIECBAgQIAAAQIFBQTIgriKJkCAAAECBAgQIECAQE0CAmRNrakuBAgQIECAAAECBAgQKCggQBbEVTQBAgQIECBAgAABAgRqEhAga2pNdSFAgAABAgQIECBAgEBBAQGyIK6iCRAgQIAAAQIECBAgUJOAAFlTa6oLAQIECBAgQIAAAQIECgoIkAVxFU2AAAECBAgQIECAAIGaBATImlpTXQgQIECAAAECBAgQIFBQQIAsiKtoAgQIECBAgAABAgQI1CQgQNbUmupCgAABAgQIECBAgACBggICZEFcRRMgQIAAAQIECBAgQKAmAQGyptZUFwIECBAgQIAAAQIECBQUECAL4iqaAAECBAgQIECAAAECNQkIkDW1proQIECAAAECBAgQIECgoIAAWRBX0QQIECBAgAABAgQIEKhJQICsqTXVhQABAgQIECBAgAABAgUFBMiCuIomQIAAAQIECBAgQIBATQICZE2tqS4ECBAgQIAAAQIECBAoKCBAFsRVNAECBAgQIECAAAECBGoSECBrak11IUCAAAECBAgQIECAQEEBAbIgrqIJECBAgAABAgQIECBQk4AAWVNrqgsBAgQIECBAgAABAgQKCgiQBXEVTYAAAQIECBAgQIAAgZoEBMiaWlNdCBAgQIAAAQIECBAgUFBAgCyIq2gCBAgQIECAAAECBAjUJCBA1tSa6kKAAAECBAgQIECAAIGCAgJkQVxFEyBAgAABAgQIECBAoCYBAbKm1lQXAgQIECBAgAABAgQIFBQQIAviKpoAAQIECBAgQIAAAQI1CQiQNbWmuhAgQIAAAQIECBAgQKCggABZEFfRBAgQIECAAAECBAgQqElAgKypNdWFAAECBAgQIECAAAECBQUEyIK4iiZAgAABAgQIECBAgEBNAgJkTa2pLgQIECBAgAABAgQIECgoIEAWxFU0AQIECBAgQIAAAQIEahIQIGtqTXUhQIAAAQIECBAgQIBAQQEBsiCuogkQIECAAAECBAgQIFCTgABZU2uqCwECBAgQIECAAAECBAoKCJAFcRVNgAABAgQIECBAgACBmgQEyJpaU10IECBAgAABAgQIECBQUECALIiraAIECBAgQIAAAQIECNQkIEDW1JrqQoAAAQIECBAgQIAAgYICAmRBXEUTIECAAAECBAgQIECgJgEBsqbWVBcCBAgQIECAAAECBAgUFBAgC+IqmgABAgQIECBAgAABAjUJCJA1taa6ECBAgAABAgQIECBAoKCAAFkQV9EECBAgQIAAAQIECBCoSUCArKk11YUAAQIECBAgQIAAAQIFBQTIgriKJkCAAAECBAgQIECAQE0CAmRNrakuBAgQIECAAAECBAgQKCggQBbEVTQBAgQIECBAgAABAgRqEhAga2pNdSFAgAABAgQIECBAgEBBAQGyIK6iCRAgQIAAAQIECBAgUJOAAFlTa6oLAQIECBAgQIAAAQIECgoIkAVxFU2AAAECBAgQIECAAIGaBATImlpTXQgQIECAAAECBAgQIFBQQIAsiKtoAgQIECBAgAABAgQI1CQgQNbUmupCgAABAgQIECBAgACBggICZEFcRRMgQIAAAQIECBAgQKAmAQGyptZUFwIECBAgQIAAAQIECBQUECAL4iqaAAECBAgQIECAAAECNQkIkDW1proQIECAAAECBAgQIECgoIAAWRBX0QQIECBAgAABAgQIEKhJQICsqTXVhQABAgQIECBAgAABAgUFBMiCuIomQIAAAQIECBAgQIBATQICZE2tqS4ECBAgQIAAAQIECBAoKCBAFsRVNAECBAgQIECAAAECBGoSECBrak11IUCAAAECBAgQIECAQEEBAbIgrqIJECBAgAABAgQIECBQk4AAWVNrqgsBAgQIECBAgAABAgQKCgiQBXEVTYAAAQIECBAgQIAAgZoEBMiaWlNdCBAgQIAAAQIECBAgUFBAgCyIq2gCBAgQIECAAAECBAjUJCBA1tSa6kKAAAECBAgQIECAAIGCAgJkQVxFEyBAgAABAgQIECBAoCYBAbKm1lQXAgQIECBAgAABAgQIFBQQIAviKpoAAQIECBAgQIAAAQI1CQiQNbWmuhAgQIAAAQIECBAgQKCggABZEFfRBAgQIECAAAECBAgQqElAgKypNdWFAAECBAgQIECAAAECBQUEyIK4iiZAgAABAgQIECBAgEBNAgJkTa2pLgQIECBAgAABAgQIECgoIEAWxFU0AQIECBAgQIAAAQIEahIQIGtqTXUhQIAAAQIECBAgQIBAQQEBsiCuogkQIECAAAECBAgQIFCTgABZU2uqCwECBAgQIECAAAECBAoKCJAFcRVNgAABAgQIECBAgACBmgQEyJpaU10IECBAgAABAgQIECBQUECALIiraAIECBAgQIAAAQIECNQkIEDW1JrqQoAAAQIECBAgQIAAgYICAmRBXEUTIECAAAECBAgQIECgJgEBsqbWVBcCBAgQIECAAAECBAgUFBAgC+IqmgABAgQIECBAgAABAjUJCJA1taa6ECBAgAABAgQIECBAoKCAAFkQV9EECBAgQIAAAQIECBCoSUCArKk11YUAAQIECBAgQIAAAQIFBQTIgriKJkCAAAECBAgQIECAQE0CAmRNrakuBAgQIECAAAECBAgQKCggQBbEVTQBAgQIECBAgAABAgRqEhAga2pNdSFAgAABAgQIECBAgEBBAQGyIK6iCRAgQIAAAQIECBAgUJOAAFlTa6oLAQIECBAgQIAAAQIECgoIkAVxFU2AAAECBAgQIECAAIGaBATImlpTXQgQIECAAAECBAgQIFBQQIAsiKtoAgQIECBAgAABAgQI1CQgQNbUmupCgAABAgQIECBAgACBggICZEFcRRMgQIAAAQIECBAgQKAmAQGyptZUFwIECBAgQIAAAQIECBQUECAL4iqaAAECBAgQIECAAAECNQkIkDW1proQIECAAAECBAgQIECgoIAAWRBX0QQIECBAgAABAgQIEKhJQICsqTXVhQABAgQIECBAgAABAgUFBMiCuIomQIAAAQIECBAgQIBATQICZE2tqS4ECBAgQIAAAQIECBAoKCBAFsRVNAECBAgQIECAAAECBGoSECBrak11IUCAAAECBAgQIECAQEEBAbIgrqIJECBAgAABAgQIECBQk4AAWVNrqgsBAgQIECBAgAABAgQKCgiQBXEVTYAAAQIECBAgQIAAgZoEBMiaWlNdCBAgQIAAAQIECBAgUFBAgCyIq2gCBAgQIECAAAECBAjUJCBA1tSa6kKAAAECBAgQIECAAIGCAgJkQVxFEyBAgAABAgQIECBAoCYBAbKm1lQXAgQIECBAgAABAgQIFBQQIAviKpoAAQIECBAgQIAAAQI1CQiQNbWmuhAgQIAAAQIECBAgQKCggABZEFfRBAgQIECAAAECBAgQqElAgKypNdWFAAECBAgQIECAAAECBQUEyIK4iiZAgAABAgQIECBAgEBNAgJkTa2pLgQIECBAgAABAgQIECgoIEAWxFU0AQIECBAgQIAAAQIEahIQIGtqTXUhQIAAAQIECBAgQIBAQQEBsiCuogkQIECAAAECBAgQIFCTgABZU2uqCwECBAgQIECAAAECBAoKCJAFcRVNgAABAgQIECBAgACBmgQEyJpaU10IECBAgAABAgQIECBQUECALIiraAIECBAgQIAAAQIECNQkIEDW1JrqQoAAAQIECBAgQIAAgYICAmRBXEUTIECAAAECBAgQIECgJgEBsqbWVBcCBAgQIECAAAECBAgUFBAgC+IqmgABAgQIECBAgAABAjUJCJA1taa6ECBAgAABAgQIECBAoKCAAFkQV9EECBAgQIAAAQIECBCoSUCArKk11YUAAQIECBAgQIAAAQIFBQTIgriKJkCAAAECBAgQIECAQE0CAmRNrakuBAgQIECAAAECBAgQKCggQBbEVTQBAgQIECBAgAABAgRqEhAga2pNdSFAgAABAgQIECBAgEBBAQGyIK6iCRAgQIAAAQIECBAgUJOAAFlTa6oLAQIECBAgQIAAAQIECgoIkAVxFU2AAAECBAgQIECAAIGaBATImlpTXQgQIECAAAECBAgQIFBQQIAsiKtoAgQIECBAgAABAgQI1CQgQNbUmupCgAABAgQIECBAgACBggICZEFcRRMgQIAAAQIECBAgQKAmAQGyptZUFwIECBAgQIAAAQIECBQUECAL4iqaAAECBAgQIECAAAECNQkIkDW1proQIECAAAECBAgQIECgoIAAWRBX0QQIECBAgAABAgQIEKhJQICsqTXVhQABAgQIECBAgAABAgUFBMiCuIomQIAAAQIECBAgQIBATQICZE2tqS4ECBAgQIAAAQIECBAoKCBAFsRVNAECBAgQIECAAAECBGoSECBrak11IUCAAAECBAgQIECAQEEBAbIgrqIJECBAgAABAgQIECBQk4AAWVNrqgsBAgQIECBAgAABAgQKCgiQBXEVTYAAAQIECBAgQIAAgZoEBMiaWlNdCBAgQIAAAQIECBAgUFBAgCyIq2gCBAgQIECAAAECBAjUJCBA1tSa6kKAAAECBAgQIECAAIGCAgJkQVxFEyBAgAABAgQIECBAoCYBAbKm1lQXAgQIECBAgAABAgQIFBQQIAviKpoAAQIECBAgQIAAAQI1CQiQNbWmuhAgQIAAAQIECBAgQKCggABZEFfRBAgQIECAAAECBAgQqElAgKypNdWFAAECBAgQIECAAAECBQUEyIK4iiZAgAABAgQIECBAgEBNAgJkTa2pLgQIECBAgAABAgQIECgoIEAWxFU0AQIECBAgQIAAAQIEahIQIGtqTXUhQIAAAQIECBAgQIBAQQEBsiCuogkQIECAAAECBAgQIFCTgABZU2uqCwECBAgQIECAAAECBAoKCJAFcRVNgAABAgQIECBAgACBmgQEyJpaU10IECBAgAABAgQIECBQUECALIiraAIECBAgQIAAAQIECNQkIEDW1JrqQoAAAQIECBAgQIAAgYICAmRBXEUTIECAAAECBAgQIECgJgEBsqbWVBcCBAgQIECAAAECBAgUFBAgC+IqmgABAgQIECBAgAABAjUJCJA1taa6ECBAgAABAgQIECBAoKCAAFkQV9EECBAgQIAAAQIECBCoSUCArKk11YUAAQIECBAgQIAAAQIFBQTIgriKJkCAAAECBAgQIECAQE0CAmRNrakuBAgQIECAAAECBAgQKCggQBbEVTQBAgQIECBAgAABAgRqEhAga2pNdSFAgAABAgQIECBAgEBBAQGyIK6iCRAgQIAAAQIECBAgUJOAAFlTa6oLAQIECBAgQIAAAQIECgoIkAVxFU2AAAECBAgQIECAAIGaBATImlpTXQgQIECAAAECBAgQIFBQQIAsiKtoAgQIECBAgAABAgQI1CQgQNbUmupCgAABAgQIECBAgACBggICZEFcRRMgQIAAAQIECBAgQKAmAQGyptZUFwIECBAgQIAAAQIECBQUECAL4iqaAAECBAgQIECAAAECNQkIkDW1proQIECAAAECBAgQIECgoIAAWRBX0QQIECBAgAABAgQIEKhJQICsqTXVhQABAgQIECBAgAABAgUFBMiCuIomQIAAAQIECBAgQIBATQICZE2tqS4ECBAgQIAAAQIECBAoKCBAFsRVNAECBAgQIECAAAECBGoSECBrak11IUCAAAECBAgQIECAQEEBAbIgrqIJECBAgAABAgQIECBQk4AAWVNrqgsBAgQIECBAgAABAgQKCgiQBXEVTYAAAQIECBAgQIAAgZoEBMiaWlNdCBAgQIAAAQIECBAgUFBAgCyIq2gCBAgQIECAAAECBAjUJCBA1tSa6kKAAAECBAgQIECAAIGCAgJkQVxFEyBAgAABAgQIECBAoCYBAbKm1lQXAgQIECBAgAABAgQIFBQQIAviKpoAAQIECBAgQIAAAQI1CQiQNbWmuhAgQIAAAQIECBAgQKCggABZEFfRBAgQIECAAAECBAgQqElAgKypNdWFAAECBAgQIECAAAECBQUEyIK4iiZAgAABAgQIECBAgEBNAgJkTa2pLgQIECBAgAABAgQIECgoIEAWxFU0AQIECBAgQIAAAQIEahIQIGtqTXUhQIAAAQIECBAgQIBAQQEBsiCuogkQIECAAAECBAgQIFCTgABZU2uqCwECBAgQIECAAAECBAoKCJAFcRVNgAABAgQIECBAgACBmgQEyJpaU10IECBAgAABAgQIECBQUECALIiraAIECBAgQIAAAQIECNQkIEDW1JrqQoAAAQIECBAgQIAAgYICAmRBXEUTIECAAAECBAgQIECgJgEBsqbWVBcCBAgQIECAAAECBAgUFBAgC+IqmgABAgQIECBAgAABAjUJCJA1taa6ECBAgAABAgQIECBAoKCAAFkQV9EECBAgQIAAAQIECBCoSUCArKk11YUAAQIECBAgQIAAAQIFBQTIgriKJkCAAAECBAgQIECAQE0CAmRNrakuBAgQIECAAAECBAgQKCggQBbEVTQBAgQIECBAgAABAgRqEhAga2pNdSFAgAABAgQIECBAgEBBAQGyIK6iCRAgQIAAAQIECBAgUJOAAFlTa6oLAQIECBAgQIAAAQIECgoIkAVxFU2AAAECBAgQIECAAIGaBATImlpTXQgQIECAAAECBAgQIFBQQIAsiKtoAgQIECBAgAABAgQI1CQgQNbUmupCgAABAgQIECBAgACBggICZEFcRRMgQIAAAQIECBAgQKAmAQGyptZUFwIECBAgQIAAAQIECBQUECAL4iqaAAECBAgQIECAAAECNQkIkDW1proQIECAAAECBAgQIECgoIAAWRBX0QQIECBAgAABAgQIEKhJQICsqTXVhQABAgQIECBAgAABAgUFBMiCuIomQIAAAQIECBAgQIBATQICZE2tqS4ECBAgQIAAAQIECBAoKCBAFsRVNAECBAgQIECAAAECBGoSECBrak11IUCAAAECBAgQIECAQEEBAbIgrqIJECBAgAABAgQIECBQk4AAWVNrqgsBAgQIECBAgAABAgQKCgiQBXEVTYAAAQIECBAgQIAAgZoEBMiaWlNdCBAgQIAAAQIECBAgUFBAgCyIq2gCBAgQIECAAAECBAjUJCBA1tSa6kKAAAECBAgQIECAAIGCAgJkQVxFEyBAgAABAgQIECBAoCYBAbKm1lQXAgQIECBAgAABAgQIFBQQIAviKpoAAQIECBAgQIAAAQI1CQiQNbWmuhAgQIAAAQIECBAgQKCggABZEFfRBAgQIECAAAECBAgQqElAgKypNdWFAAECBAgQIECAAAECBQUEyIK4iiZAgAABAgQIECBAgEBNAgJkTa2pLgQIECBAgAABAgQIECgoIEAWxFU0AQIECBAgQIAAAQIEahIQIGtqTXUhQIAAAQIECBAgQIBAQQEBsiCuogkQIECAAAECBAgQIFCTgABZU2uqCwECBAgQIECAAAECBAoKCJAFcRVNgAABAgQIECBAgACBmgQEyJpaU10IECBAgAABAgQIECBQUECALIiraAIECBAgQIAAAQIECNQkIEDW1JrqQoAAAQIECBAgQIAAgYICAmRBXEUTIECAAAECBAgQIECgJgEBsqbWVBcCBAgQIECAAAECBAgUFBAgC+IqmgABAgQIECBAgAABAjUJCJA1taa6ECBAgAABAgQIECBAoKCAAFkQV9EECBAgQIAAAQIECBCoSUCArKk11YUAAQIECBAgQIAAAQIFBQTIgriKJkCAAAECBAgQIECAQE0CAmRNrakuBAgQIECAAAECBAgQKCggQBbEVTQBAgQIECBAgAABAgRqEhAga2pNdSFAgAABAgQIECBAgEBBAQGyIK6iCRAgQIAAAQIECBAgUJOAAFlTa6oLAQIECBAgQIAAAQIECgoIkAVxFU2AAAECBAgQIECAAIGaBATImlpTXQgQIECAAAECBAgQIFBQQIAsiKtoAgQIECBAgAABAgQI1CQgQNbUmupCgAABAgQIECBAgACBggICZEFcRRMgQIAAAQIECBAgQKAmAQGyptZUFwIECBAgQIAAAQIECBQUECAL4iqaAAECBAgQIECAAAECNQkIkDW1proQIECAAAECBAgQIECgoIAAWRBX0QQIECBAgAABAgQIEKhJQICsqTXVhQABAgQIECBAgAABAgUFBMiCuIomQIAAAQIECBAgQIBATQICZE2tqS4ECBAgQIAAAQIECBAoKCBAFsRVNAECBAgQIECAAAECBGoSECBrak11IUCAAAECBAgQIECAQEEBAbIgrqIJECBAgAABAgQIECBQk4AAWVNrqgsBAgQIECBAgAABAgQKCgiQBXEVTYAAAQIECBAgQIAAgZoEBMiaWlNdCBAgQIAAAQIECBAgUFBAgCyIq2gCBAgQIECAAAECBAjUJCBA1tSa6kKAAAECBAgQIECAAIGCAgJkQVxFEyBAgAABAgQIECBAoCYBAbKm1lQXAgQIECBAgAABAgQIFBQQIAviKpoAAQIECBAgQIAAAQI1CQiQNbWmuhAgQIAAAQIECBAgQKCggABZEFfRBAgQIECAAAECBAgQqElAgKypNdWFAAECBAgQIECAAAECBQUEyIK4iiZAgAABAgQIECBAgEBNAgJkTa2pLgQIECBAgAABAgQIECgoIEAWxFU0AQIECBAgQIAAAQIEahIQIGtqTXUhQIAAAQIECBAgQIBAQQEBsiCuogkQIECAAAECBAgQIFCTgABZU2uqCwECBAgQIECAAAECBAoKCJAFcRVNgAABAgQIECBAgACBmgQEyJpaU10IECBAgAABAgQIECBQUECALIiraAIECBAgQIAAAQIECNQkIEDW1JrqQoAAAQIECBAgQIAAgYICAmRBXEUTIECAAAECBAgQIECgJgEBsqbWVBcCBAgQIECAAAECBAgUFBAgC+IqmgABAgQIECBAgAABAjUJCJA1taa6ECBAgAABAgQIECBAoKCAAFkQV9EECBAgQIAAAQIECBCoSUCArKk11YUAAQIECBAgQIAAAQIFBQTIgriKJkCAAAECBAgQIECAQE0CAmRNrakuBAgQIECAAAECBAgQKCggQBbEVTQBAgQIECBAgAABAgRqEhAga2pNdSFAgAABAgQIECBAgEBBAQGyIK6iCRAgQIAAAQIECBAgUJOAAFlTa6oLAQIECBAgQIAAAQIECgoIkAVxFU2AAAECBAgQIECAAIGaBATImlpTXQgQIECAAAECBAgQIFBQQIAsiKtoAgQIECBAgAABAgQI1CQgQNbUmupCgAABAgQIECBAgACBggICZEFcRRMgQIAAAQIECBAgQKAmAQGyptZUFwIECBAgQIAAAQIECBQUECAL4iqaAAECBAgQIECAAAECNQkIkDW1proQIECAAAECBAgQIECgoIAAWRBX2U2eRwAAIABJREFU0QQIECBAgAABAgQIEKhJQICsqTXVhQABAgQIECBAgAABAgUFBMiCuIomQIAAAQIECBAgQIBATQICZE2tqS4ECBAgQIAAAQIECBAoKCBAFsRVNAECBAgQIECAAAECBGoSECBrak11IUCAAAECBAgQIECAQEEBAbIgrqIJECBAgAABAgQIECBQk4AAWVNrqgsBAgQIECBAgAABAgQKCgiQBXEVTYAAAQIECBAgQIAAgZoEBMiaWlNdCBAgQIAAAQIECBAgUFBgVYAsuB1FEyBAgAABAgQIECBAgEAdAjvs0DTNtm3bttVRHbUYvUBcGdGfR98NABAgQIDAggo4Ty9ow9gtAjMImMI6A5K3LJ+AE9PytZk9JkCAAIHxCDhPj6et1bQ+AQGyvjZVo6ZpnJh0AwIECBAgsLgCztOL2zb2jMA0AQFympC/L6WAE9NSNpudJkCAAIGRCDhPj6ShVbNKAQGyymZVKScmfYAAAQIECCyugPP04raNPSMwTUCAnCbk70sp4MS0lM1mpwkQIEBgJALO0yNpaNWsUkCArLJZVcqJSR8gQIAAAQKLK+A8vbhtY88ITBMQIKcJ+ftSCjgxLWWz2WkCBAgQGImA8/RIGlo1qxQQIKtsVpVyYtIHCBAgQIDA4go4Ty9u29gzAtMEZg6Q9957b3PEEUc0+++/f3PZZZetKvctb3lLc+uttzZXXXVVs/POO7d/++53v9sce+yxzQ033LDy3pNOOmnVZ1OZt99++6ry9tprr+aaa65pDjjggIll5R/40Ic+1Dz/+c+fVld/H5HALCemV7ziFc3ll1/eq5L64AMPPNBceOGFTfSx++67r3nJS17S3H333b2fif4d741+H+/r65OT+nwU2O33I2ouVSVAgACBkQn0nafj9+QVV1yx6jdgsKRz51lnndWeW+N999xzz3a/R/ved/3117fn8D322GM74Sgn/X2nnXba7ndr+kD+O/PDH/5w+3u473XYYYe1v4Uffvjh9j3d37fxme5v4ZE1u+pWIrDuABkHQzewdQPkbbfd1v6APuSQQ1Yd3PGD/XOf+9zKgRwH+vHHH9+cf/75K2ExXOPgPPPMM1e+QFIYnfSjvJK2UI0BBWYJkPnmos/FRYv8IkjqiylA5iefSX1yWl+d1OcHrLqiCBAgQIDAwgtMCpDx+y8FsTQosZkA+cEPfrDZe++9m0suuWRlkCOd3yPkPeMZz2h/l6YA2f2t2f1NOun3Qg4+6Vyf6nHkkUc2Z5xxxsK3kR0kMElgXQEywt6uu+7afOUrX1l1NScPkLGhGIE58MADew+OCJHxilHMtX5M95U5LUD2jYRq+nEKLHOATCF00jE0zhZVawIECBCoSWBSgIwZbffff3+Th6zNBMgoL367HnPMMasGK9Lv0TSwMSlAdn+rbiZARvv5rVpTLx5vXdYdIOOKSYS/OBjTVNb8YLjrrrua0047rbn44otXHaiJOEYnzzvvvObKK69s/6lvBDL+PX/fpIN6vM2m5tMEljlATqubvxMgQIAAgWUXmBQgY2pqzGDLZ6JtNkDGtNcHH3xwZWAjyovfqoceemjznve8Z+oI5E033bTym1eAXPaeZ/+HEFh3gIzppvGK0cA3v/nNK3PR0z2QN99888o9Y33zzfMrObvvvvvEAJm/b5999pk4Lz1NPejb1hBAylhOgUUOkJPui+hO2VlOeXtNgAABAgSmC6wVIGOAIkYII/Tl9xRu5B7I+H36+te/vp3CGrekxLTYCIERCiOopttU1roHMj8/r3UPZPwujoEWU1int793LLfAhgJkLG6T33h83XXXrSyiUzJATpvCutxNYe+HFFjkADlp1H3I+iuLAAECBAgsssC0AJnfL3j00Ue3i9JsNEBGCL3gggvaMuI3bITTCI/x6gbI7m/NtK5HGjSZdQRy0sXiFDIXuW3sG4FpAhsOkOk+rZjKuueee64ESFNYp5H7+zwEBMh5KNsGAQIECBDYmMC0ABmlpgVsInRF0NtMgIwBjhh1PPvss1dutYqFIacFyNiPfP2OWQNk92JxdyHJjan5FIHFENhwgIzdT1dlfv7nf7553OMe104ziNdWLaKzGKT2YhEEBMhFaAX7QIAAAQIE+gVmCZApvP3zP/9z8+1vf3vl1qlJIS5+l+brcORrdMSjNdJ9j1/60pfaexqjnFkDZAyWxPTUjQbINPASdequ+K6PEFg2gU0FyKhsHJzdJZc9xmPZukF9+ytA1temakSAAAEC9QjMGiDz5yenx8hNehxGft9k3OvYXfE0Pf85lTNLgOyG0o0GyHzgpfuYu3paVU3GIrDpADnpikr69xtuuGHFsvvw1EkPVe8ujNNXVt5AqVxLI4+l206v51YHyLzfp72NE1b07Un3RcT7YprOCSecsOYo/vTaewcBAgQIEFhsgVkDZNQiLVyTP4d8lt+Z3d+FeWCMxRf7AuSk83es5JrvS5/uXnvt1T5Teq1FIlNd3Au52P3T3q0tMHOABElgmQTWGyCXqW72lQABAgQILLuA8/Syt6D9H7OAADnm1q+47k5MFTeuqhEgQIDA0gs4Ty99E6rAiAUEyBE3fs1Vd2KquXXVjQABAgSWXcB5etlb0P6PWUCAHHPrV1x3J6aKG1fVCBAgQGDpBZynl74JVWDEAgLkiBu/5qo7MdXcuupGgAABAssu4Dy97C1o/8csIECOufUrrrsTU8WNq2oECBAgsPQCztNL34QqMGIBAXLEjV9z1Z2Yam5ddSNAgACBZRdwnl72FrT/YxYQIMfc+hXX3Ymp4sZVNQIECBBYegHn6aVvQhUYsYAAOeLGr7nqTkxb17qveMUrmssvv7zJH/i8dXtTz5bjgdhnnnlmc9JJJzVnn312c8QRRzS33377ROf8IdtHHXVUc+WVVzY/9VM/VQ+ImhAgsNQCztNL3Xx2fuQCAuTIO0Ct1Xdi2rqWFSDL2K83QH7qU59qjjnmmOa///u/m8c+9rHN1Vdf3TzrWc8qs3NKJUCAwDoFnKfXCebtBBZIQIBcoMawK8MJODENZzmtpP/93/9tPvKRjzTXXHNNc+eddzb33nvvykf22Wef5oADDmhe+tKXNgcddFDzoy+caUX6e49AHiBf+9rXNkceeWRz2223TRyBPOOMM5r3v//9zbHHHttcccUVbRtEGdpA9yJAYBEEnKcXoRXsA4GNCQiQG3PzqQUXcGKaTwPdcccdzWmnndZ8+tOfbvbYY4/mV3/1V5v777+/+exnP9scfvjhzXe+853m85//fPPDH/6w+YM/+IPmzW9+c7PLLrvMZ+cq28oHP/jB1vA1r3lNc9555zXHHXdc88UvfrEN7hHS81e0wQtf+MLmx37sx5qLLrqoefWrX9088sgjzfve977mSU96UmUyqkOAwDIKOE8vY6vZZwL/v4AAqSdUKeDEVL5Zv/a1r62EmJNPPrk555xzmp122qnpTmH993//9zbwXHvttc2LXvSidjQsplTGCFmEm8suu6y9r6/7uuSSS5pTTz21efvb396ccsopbbk33XRTb2BKo3MRUKPcePW9/6//+q+bGL2LaZ0RvHbffff2XsJ4xT2bEYLzV18ZaVvdezy3bdvW/Omf/mn7f4cddlhz1VVXNTvvvHNbXBi87W1va2644YZVI7RpW93397XeZz7zmXZKalhEIAybf/zHf+zd77COfQ/X2N/Xve51zZ/92Z+11i9+8Yt7O0eMHKf7Kvve8IxnPGPVtlI7x3tz9/yzyar7nkltGaPZ8bf3vOc97b7H/sYrRlpf8pKXNIcccsjKv6XtpP3O23Ct9998883N8ccf3/zET/zEdn0ptdNHP/rRJvp39IfnPve57T2nv/ALv7CyH3fffffEA2yvvfZaKTfq8rnPfa7tCzEaHAH+nnvuaZ7+9Ke3I8OxH/l9qevtW6meJ554YvMrv/IrbTvccsstzY477tj89m//dnvP7FOf+tTt9rWvnr/5m7/ZHjvd9+ftnBe03377Nb//+7/f9sW8DnGhIu63ve6665p//dd/beJe3HDsK3+97Zraerfddlt1fMV+/du//Vv7/fKFL3xhu1H52Ke4ABP9Kv7+4z/+4+3FrtNPP7059NBDjcqXP130bsF5eovgbZbAAAIC5ACIilg8ASemsm3ygx/8oP3xFSEvwmOEk5/8yZ9sN9p3D+S3vvWtdgpl/LhNISZ+pEcgilDw7ne/uw2V6RU/+OLH9Ve/+tX2h+iTn/zkTQfIb3zjG214+va3v90cfPDBTfzofvSjHz1YgIwfplGff/mXf1kVIL/+9a+3dY9R2gMPPLB52tOe1v6AjVfsSzjE9N48cPa1XpQTi+FEAP693/u9NpBGmd3PRdu88pWvbG688caV+x7T/ZC//uu/PnExnfTjPExiH9Prf/7nf5q/+7u/a57whCdsFyAjqEYQi3sru/uRL+Iza4D827/92+ZlL3tZ8+CDDxYJkNGvot3f+973NnnQi/2LvvmHf/iHzX333dfWf9999237X4ScuNDwrne9qzWI/x9BN15f/vKXW+cIIXvvvXf7b3EcRDm/+Iu/2PbZCP6/9Eu/1HzsYx9rQ92uu+7afOITn2i+8pWvtCPKl1566cqo/KQAOalvpQD2a7/2a+1If7TFb/zGbzTR1z/+8Y83P/3TP9289a1vbftNekV/+6M/+qO2njFyHfv2n//5n+0+PeYxj2n+/M//vN2v9Io6/NVf/VXzu7/7u2158XrooYea6FPRZyKkXnjhhW0Ii38/4YQT2n6S+nq8/0tf+lIb3MIx+knsb7yGCpBx8eass85qA3S88os7sU8xah/hcc8992x+67d+q33PJz/5ySa+l+LiSnyXmdpd9pzRV7rz9PzNbZHAUAIC5FCSylkoASemss0RUyTjHrz44RmLszz72c9e9YOzbxXW9OM4fmDG3//rv/6rDXT/8R//0f6gj1GZ9Eo/LOMH9zve8Y7mUY961KYDZISdGGF55zvf2Tzvec/7/9o7F1Arqi6Ob8moUDNDDa3UIopK7Un00l5SVvRQeqjZix5EBZpWavRU1Ax6aFT0oiyorJAkIShBy7TQKLEyexollmkUZllp+PHbte637zjncc/MnJlz7n/gYt179sye39pn9v7PWnstf6k471VIrloPJIKCRTligCP0KHKvnCcqtMMF9IABAyoKyGotipDAE4MAssyrJsgJLS6VTAeBikcJ8WBe3HKMjE3//v29tw4b4pWK2pDvIn+v5B1moc9Lg3nz5vlTZOGBxAM4ZswYt3HjxlYCkmvj4YTd1KlTvWfdniF4yfEqE5KNLcMXHXGe7+j4oQ3ikpcsiDCODRs2+PtDfMIFlhxxArLc2LLvCR5Rvle0JwoAQYXHE2GEQGTs9+7d29nLDIQx9zVy5MgW4WTCsmPHjn6M2EuEUt5i8/hxLXvJY1EDhLVzX/ZSic/w/4g8ohHgGY7/aj3LpTyQixcv9jYzz3AoII3peeed5194IWI5LIKCf59++ml31llnVfsV0+dSIqB5OiWQOo0I5EBAAjIH6Lpk9gQ0MWXL2Baue+yxh/dO9OvXr+WCpbKwzp0713v7QnE1ZcoUv6C0MFU7CYu+yZMne1FlIaZJQlhJ5kPIIN45QldtH2ZaAhLPGQt4hClhtqEgJNSUheucOXNaeYKyEpC2iI+GBiMK8IQiKuKS6YThkG0RkHg7ESN4RsNQZGyLzfGI8RKgkoCkv4g3ROzMmTNTF5DmgUZgbdmyxYsN2z9q3nAEHh5GEz7YCLGJsN22bZu/D0JZw3GKB65UCK99FxjLd9xxR6svpXmFeXFi3ts4AVlubIXfw+j+VvNEI+7se2QvMwiDxma8mAkP+z6GIq/U9848zCTOgiNjnrG1bNky/yIlui/Xvv9JXgzECUjzKmNfvteIRxOQthcY4Rz34uT111/3tuWZZC+qsn1y6uwhAc3TGg8i0LgEJCAb13bqeRkCmpiyHR4kz8HLxRH1PJUSkJYEBkFIOFmXLl18GBxhn2FopS1M8QqxKGa/E0etApLFM2LBvB/m7eGcaQhI6y+hnizM8XCFApJQU7yTcSLDBEBaHkjzpK1fv36HhDl4nUiswxGXTMf2WE6fPr2V0C3FyOzB/eFd4yUC+1sRJdaPnj17+qQ97CEsJyDZF8g44LPsORwxYkTqAhJxhrieNWuWF1QmfBA6Jty4D/b0VXtU44G0UGKEdHggTPHAYyvz4EUFZKWxZeOHkGzEYTQM014amCAs9zKDvtkYwPto39FS3ztqkCK+8Mjy3e7bt2/L7ZE0i/sinPvLL7/0SbX4wduXtoDk2nznCKPlGmH0A2G8jKujjjrKzZ492/HCKzzM686YfeWVV1qeNdXaX59LRkDzdDJ+ai0CeRKQgMyTvq6dGQFNTJmh9Sc2gcAevGhiljgBSQibJc0JvRu2QGYvmYWxmqjEY2ihbiYgWRyWO6IiJfw8wog+2P7DtASkec7wmhEmSChkKAhtkc/+tGnTpnmBZGGQaQtIWzDjeSl3xCUuwkPE/kBEh4ValmMUCgvaLliwoEUImQ3xaCEkol66sC0vDxD3JDhC2NF3XjLECY1yyWvCJD/RvXW2h3DIkCE+2RN7FEMBWWvt0moEJEIr6qWHa9SDFwpZ86BVO7auvvpqzzB6hF4/PI58jsRL2DgqaGnLvkzEO3s9CXvt3r27f3ET3QO5efNmv4eQMHS+owg4DsJt8eTxw0sBO0ii06tXL++dTGLXqAcS7yMinH7iOYZBKCDt/kkwBN+owMarzDMMj3RcNuNsn6I6u+ZpjQERaFwCEpCNazv1vAwBTUzZDw8Wt5blEW/FAQcc4C8atxi3BCX8PUyiwf9Hs60iOkiqEw05i1vI2l1aMpOogMT7wwKXBCYInGiCkKQeSDJWmucMHuyhiwpIxDP3TLKOsEZmaKFqsrBWsqiJdLyAhFmGYZjWlgU+GTjZ72X7I+1veHAQDVGPciUPJAtvvGm2B48FPTZkLyOeTv4tJyC5PsxoByNqipYSkD169PDZM8MjLslPKCAR9oRW4l3j3hD5vJyol4AkC2tcht9KArKasVUq7Nj41Cog+/Tp0+KxK5WFlWuQEIj9jnjY8eJZIhvE/PDhw31yKJIJ4YlOw65RAcl+Zp4fjGW8sNFnj91/pe9ONKFSpc/r7+kQ0DydDkedRQTyICABmQd1XTNzApqYMkfsvQ0IA0ICWeyyiCQ7qHkB8FqwkEQIstDbunWr3wdGMpnwsHDYQw891GeMxEPBYjSa1bPWEFYEDuF1CJQffvihlYBNIiC5P0QIextNFJfzKJJwCA8Qn7Hsl23JwlrJoiQjsmyb0ZBCa0t2UxKn4B0KBTr75fA+wsc8T9amGgGJKOPaeHoQgYhqvE54ohBwpQQkyUsILcSzyL+EwaaxVy4UkOypRNyyV5MxGifcEM+TJk3yobhph7CWKj1jtqBWajSEtdqxVS6LKfazPY/VhrCaBxuvcKUQVkKisStlUXh5wncd7yXhq9wP+47DIw27hgISe/GsIAPwjBkzWhJtxYWwnn322bEhvpW+U/p7tgQ0T2fLV2cXgSwJSEBmSVfnzo2AJqb6oC8Vsha9Oin9WcTG1Vwz8UKoH54iEqmMHTvW7ycMjyQCEsGGqEJEkOiGBS8euiQCEqGE2DLPGWOulIC08gZ4QsOyAWmGsFrtR8QbXplSZQm4PkldwmQ6tj+SrLeEZYZHNQISwYG92POGnSZMmODtCJtyNToRHIhIBBwJfjjSEBrGFbsTbomXEoGKJyxOQFoylbgkOoxPhApZRxGYYXKYakJYETTRJFHcp4X5EkpqZWzsfNWOLbtP9gmH+4U5vyXRofaohSVXm0SHshc2Dsp972xfM3wYd1Hvu42jMIQ9jT2QhNjijV6xYoX3KpNpliPqgbSXKpSmifKpzxNSVylHQPO0xocINC4BCcjGtZ16XoaAJqb6Dg+EJKn0ly5d6usaksyCMh94Bwhjo9RDuPcw2jsTP9SHY1+VeWTSFJAmHOibpe1PIiDZd0V9Shbn1JfjiBOELOQRVITPkniIEFMrvJ6WgPzjjz+8dxMhFGaujRsFJlxYgFsyHQQnob6EAlqJE2tbjYBEVFmZFBLhINjMC1pKQJaqIZmmgES486IAL6h5Z+MEpNUpRZBEy1sgwNjjxxgOM/jCp1oBCR9eWliZEyvjwf47vLTWNztftWPLxo/tM8UjyP2GZTwQ9+bNr6aMB/cVhpmXEpBcgzHDDy+HSNDEC4HffvvNey8HDRrkh1DYl6T1PW0skoyHiAauG2YMjgrIsI+84OBFhX33rF8wIyya7yXfCR31I6B5un6sdSURSJuABGTaRHW+QhDQxJSfGWpJSGIeMPaLIYTiUuon9UBCxArV26J606ZNfr8dC/ChQ4c6PBXhQdIPFqt4pgiFJETXFvmdO3f2nj7znJUSkOx/Y/GKKAjr65X6fC2Ws9qPlKgoFb5q57UESLBgQU0I5fz58x0s4hjYHkPaU0uPTJ7sa4vawxKwIMIIUzYvaCkBiTeMvXa2f836l6aAJDSW+oDmceYacQKS39s+3bVr17aEGBN2vHDhQp8AhiQtvAwJj2oEJOGoZP/EE0oSH8KzrYg9Yx0b2H7Vto4tE5D0iYQyvMgggyrfJ/5mmXGJALDD6j3G3eduu+3Wqg4mbeL2HhOmunLlSkdyIuoqIji5rr0oYW8k99q1a1f/mU8//dSHTnPf1MQ0QVsuBDfuxYX9jmgFxqp5le3e4p49jHfGI6HmXBsW3Kf1v1u3bj503kR8Ld8/tamNgObp2riplQgUgYAEZMpWsIUcST3iwpbCy9neLybXuKNUbbGUu9yUp9PElJ9ZaxGQeAMQWQisUh60NASk1YwjlBSRimcIAcmCtNJh30db5Mclvol6FPE0IWAQVVGxmaaAtPp9pcR39N7s82SEpY88t6o5wmQjUXtYKDJiNPRklhOQcfUI0xSQ3FM0u2YpAclnSTBEWRK8jogV9nEihPBSIT6iRzUCkj2QjDX2F7744ouOfa+ILfghWkLPfFvGFuLMxht9HDZsmN8LyFhGFDE+2c8Z1q20/tt9IiZ5QcJ94jHEm8d+5vAolUQHkUjIsyXSMhGLWMfDzxxon+EceOsJcw3LltQqIOl/6LktJyCtX4xJvN6rVq3yYp6kX4TUE1JL1mQd9Segebr+zHVFEUiLgARkWiT/Ow8LABaavOFkUoqGPIWXI209IW1MstH6VHyOGlthzbqUu9rUp9PE1Fjmtf1aeE6KtlepUqbLxiLdurfm0aFOHgv/cgfPNsL8VO6geouXe+lR/VlKf7JSEp00rqFziEBWBDRPZ0VW5xWB7AlIQKbI2ELD2JvBG128HHhUTj311Nir8KabPRwkASA0Tkd6BDQxpceyHmfiu0KmTDxoZGot0iEB+a81JCDbPiolINvOTC3aDwHN0+3H1rrT5iMgAZmiTS2THzXGBg8e7D2I7I9i4RWXEZHFBWFNhNWQAl1HegQ0MaXHMqszUTCe0hHr1q3zZSVIMGKlHLK6Zi3nlYCUgKxl3NBGArJWcmrXHghonm4PVtY9NisBCciULGtpylkAs9cCQUjSADLSWabD8FIkrkBckriCfTGEsepIj4AmpvRYZnUmvhskt+AFCi9ceNESLRKf1bV1XhGoBwEJyHpQ1jUalYDm6Ua1nPotAs4cYx06/Jtte7uY1EjAskh26dKlRRBaooq4ZDqkUyerI9n9SM5A4gmSDvDfJPWgRhuJEHTURkATU23c1EoEREAEREAE6kFA83Q9KOsaIpANAXkgU+JqBZop0G17uKzeWlz9MEJXyUhHGJ+lFie9+5IlS9zHH3/ss9s98cQTPlOcjrYT0MTUdmZqIQIiIAIiIAL1IqB5ul6kdR0RSJ+ABGQKTCkNwH5HCpSTNIfi6Rz2e8RitEA3teEmTpzoa1mFxY1pw+9J+R+X4j6F7raLU2hiahdm1k2KgAiIgAg0KAHN0w1qOHVbBJxCWFMZBOZpPPLII1sKJNuJEYIU3q62PhvtLByW/6YINcWgdbSNgCamtvHSp0VABERABESgngQ0T9eTtq4lAukSkAcyBZ533XWXI3S13EGYKuU6EJmVjnKFriu11d//JaCJSSNBBERABERABIpLQPN0cW2jnolAJQISkJUIVfg7exhHjRrlSIpDOOquu+66Q4uPPvrILV682IvMsMYddSM7derkdtlll1ZtTECuWrVKJT5qtI8mphrBqZkIiIAIiIAI1IGA5uk6QNYlRCAjAhKQCcFSgoBU7SNGjHCPPPKIIxFO9LD6kIcccogv6dGjRw9f/47w1GeffdZnXQ2PDz/80F1yySW+tIdKfNRmIE1MtXFTKxEQAREQARGoBwHN0/WgrGuIQDYEJCATcP3777/dDTfc4F566SX32GOPudGjR8eeDU/jpZde6t55552Wz5nwPP300x0ZXBGVHBs2bHDXXXede/PNN90999zjxo0bl6CH7bepJqb2a3vduQjUk8B7773nn+977rmnIznatGnT/DOd5zjzgg4REIF4ApqnNTJEoHEJSEAmsJ15Cnv27Ok9i3vvvXfJs1Ek/dZbb3UjR450Tz31lNtpp538/8+aNcvtv//+7uSTT/ZtFy1a5L755ht37bXX+sLqu+++e4Iett+mmpjar+115yJQTwISkPWkrWs1EwHN081kTd1LeyMgAZnA4iYKb775Zi/2yh0mNvmMJdP566+/fIgqJT7YJ8lxxBFH+JIgCM3o3sgEXW13TTUxtTuT64ZFIBcCUQF53333+TJM8kDmYg5dtIEIaJ5uIGOpqyIQISABqSHRlAQ0MTWlWXVTIlA4AiRQu+CCC1yXLl38C0F+2HqAkLzlllsK1191SASKQkDzdFEsoX6IQNsJSEC2nZlaNAABTUwEPjZuAAALm0lEQVQNYCR1se4E1qxZ4x588EH3xhtvuK+++srtu+++7owzznC33Xab22+//Xx/vv/+e5/Yi5B8knx17dq1pZ+fffaZT/BFxAT7/YYPH97yt99//91HU7C/mwzShOkfc8wxbvz48Y693ps2bXJXXHGFe+2118redyi86Mujjz7q26xevTq2v3Yykpmx95CjlHizqJHoZ+z31Yg+u47d/6+//uouv/xyt/POO7tnnnnGLVy40DOaPXt2Kz51N7YuKAIFJ6B5uuAGUvdEoAwBCUgNj6YkoImpKc2qm0pA4N1333XXXHONW7t2rQ+VHzhwoPviiy8cIZj77LOPe/LJJ92JJ55YUkBu377dTZw40YszjlBAkiiMfdv8jpq3xx9/vCPJ2IIFC9zmzZsdtXIRXiSVQRRy/PLLL17Ikm168ODBrmPHjv73p512mjv33HPdsmXLfJKyDz74wJ+PPlM2CYHWq1evlv6GAhLxipA76aSTdhC/Vh7JBGwoFpMISLgQrkoG7ocfftgtX77c3Xjjje6hhx5yxx13XAKLqakINDcBzdPNbV/dXXMTkIBsbvu227vTxNRuTa8bjyFgmaDZiz116lR35ZVXOvuO3H///T7j87Bhw7wH7+eff471QFLLlnZff/31DgJyypQp7s4779wh+ZeJVvZzP//8827AgAEtvbO9g/wu6uk0sYcAJdkYP7YnfM6cOW7s2LHu4IMP9t7O3r17+3MiUN966y3Xv39/711lr/lhhx22w/W4b/6eloDUgBMBEaiNgObp2riplQgUgYAEZBGsoD6kTkATU+pIdcIGJoCn77LLLnNnnnmm99yFCbo2btzoE3dt27bN17LFExgNYSU8ldq169ataylXYR7IH3/80Sf9QnhS0oh6t+Fx9913u7lz53ovZFjztpyAtNq5hMAiPCmRYQceP/YWPv74463KJ5mAxGuJKL799tu9Z9AORC79OOGEE/x9SkA28IBW15uCgObppjCjbqKdEpCAbKeGb/bb1sTU7BbW/bWFgIVoPvDAA+6mm24q2zRuD+TLL7/sxowZ4+699173/vvve0+lCUgTgocffrjfA0gymWqOcgISsTl58mQ3ffp0HzYbPejPxRdf7ENFCRvlMAHJHk/us1+/fl5kElpqHlhKLh144IF+z6cEZDVW0mdEIDsCmqezY6szi0DWBCQgsyas8+dCQBNTLth10YISiCZ+KdfNqIDE+zh69GjXvXt3771E0IUCEq8ensW2lq0oJyCtv+eff77r06fPDt21/ZPs2bTwVxOQeCzpE+GveEQPOugg9/bbb3sPLF7I9evX+5DYOAEZvRAhsOzJRKhakqG2sCzocFC3RKAQBDRPF8IM6oQI1ERAArImbGpUdAKamIpuIfWvngTaInqiAvKJJ57wdQ3JsIqYip4rSwFZiRECM05AEpZLUh88r4hfhOO8efPcCy+84P8tJSDJFksSII5//vnHrVy50mecDZMMtYVlpf7r7yLQnglonm7P1te9NzoBCchGt6D6H0tAE5MGhgj8nwChp5MmTfKhnW0JYaUNnkWyms6YMcOHg0YF1JIlS7x3jyypaYewkjDnoosuqsqUoQeSxDq0O/roo/3eS/pHyRL2Ps6cObOkgIyW8WC/pSUZGjFihG9PKG/oga2qc/qQCIjADgQ0T2tQiEDjEpCAbFzbqedlCGhi0vAQgf8TsKQ0cUl0KLeBSKTGIwITbxshqXvttZfr0aOHW7Fihc9oStZTjqiApLTGqFGjfFmOuCQ6zz33nPcA0m7cuHEtnSoXwsr+SmpGkrgHL+J/E1VZk4YC8thjj/Vhp5988om/7oQJE3z2WbyRcSU7ypXxiPYzGsKrcSYCIlAbAc3TtXFTKxEoAgEJyCJYQX1InYAmptSR6oQNTOCnn37yxe4Rg3jUyJpqooy6iHjVKH/B/kH2PCIgKXWxdetWX56DrKd2RAUkXjrKgPCDaMPb2alTJ//xb7/91teepN4kQhJPph3lBGS5/tI/RNyrr77q60SSbdWELWU8uAfqL1Lig36TNOfPP/90JN7p27dvmwSkPJANPOjV9cIT0DxdeBOpgyJQkoAEpAZHUxLQxNSUZtVNJSBgNRnXrl3rBRYexe+++84tXLjQ9erVyyfIISmN7YFcvny5Gzp0qJs9e7Yje2kpAcnvyXLKnkM8h9R1pFQGns1FixY5xCBhpOPHj2/lSSwnIDnn0qVLvQcSEUp47MCBA92WLVv871evXu1OOeUUx/7MAw44IFZAfv75546wU0Tz9ddf7/dx8lwo54EM90DSf+pmrlq1SnsgE4w7NRWBUgQ0T2tsiEDjEpCAbFzbqedlCGhi0vAQgR0JrFmzxlHmAq8jQpF9gUOGDPF7Ai15jAlIPsuev+gexFJJZPAMkmiHpDYIr65duzrqOCLezjvvvB3CUCsJSHpv/aWOJR7Rzp07+zqTF154obvqqqtct27dWgnb0AOJAESAzp8/3/frnHPO8Z8tJyCjxOAzaNAg78mkTAmHkujomyUC6RDQPJ0OR51FBPIgIAGZB3VdM3MCmpgyR6wLiIAIiIAIiEDNBDRP14xODUUgdwISkLmbQB3IgoAmpiyo6pwiIAIiIAIikA4BzdPpcNRZRCAPAhKQeVDXNTMnoIkpc8S6gAiIgAiIgAjUTEDzdM3o1FAEcicgAZm7CdSBLAhoYsqCqs4pAiIgAiIgAukQ0DydDkedRQTyICABmQd1XTNzApqYMkesC4iACIiACIhAzQQ0T9eMTg1FIHcCEpC5m0AdyIKAJqYsqOqcIiACIiACIpAOAc3T6XDUWUQgDwISkHlQ1zUzJ6CJKXPEuoAIiIAIiIAI1ExA83TN6NRQBHInIAGZuwnUgSwIaGLKgqrOKQIiIAIiIALpENA8nQ5HnUUE8iAgAZkHdV0zcwKamDJHrAuIgAiIgAiIQM0ENE/XjE4NRSB3AhKQuZtAHciCgCamLKjqnCIgAiIgAiKQDgHN0+lw1FlqI/CfAKqtsVoZgQ4dnHPbt2/fLiQi0BQENDE1hRl1EyIgAiIgAk1KQPN0kxq2QW5L4y+ZoeSBTMZPrQtKQA+GghpG3RIBERABERAB55zmaQ2DPAlo/CWjLwGZjJ9aF5SAHgwFNYy6JQIiIAIiIAISkBoDORPQOjGZASQgk/FT64IS0IOhoIZRt0RABERABERAAlJjIGcCWicmM4AEZDJ+al1QAnowFNQw6pYIiIAIiIAISEBqDORMQOvEZAaQgEzGT60LSkAPhoIaRt0SAREQAREQAQlIjYGcCWidmMwAEpDJ+Kl1QQnowVBQw6hbIiACIiACIiABqTGQMwGtE5MZQAIyGT+1LigBPRgKahh1SwREQAREQAQkIDUGciagdWIyA0hAJuOn1gUloAdDQQ2jbomACIiACIiABKTGQM4EtE5MZgAJyGT81LqgBPRgKKhh1C0REAEREAERkIDUGMiZgNaJyQwgAZmMn1oXlIAeDAU1jLolAiIgAiIgAhKQGgM5E9A6MZkBJCCT8VPrghLQg6GghlG3REAEREAEREACUmMgZwJaJyYzgARkMn5qXVACejAU1DDqlgiIgAiIgAhIQGoM5ExA68RkBpCATMZPrQtKQA+GghpG3RIBERABERABCUiNgZwJaJ2YzAASkMn4qXVBCejBUFDDqFsiIAIiIAIiIAGpMZAzAa0TkxlAAjIZP7UuKAE9GApqGHVLBERABERABCQgNQZyJqB1YjIDSEAm46fWBSWgB0NBDaNuiYAIiIAIiIAEpMZAzgS0TkxmAAnIZPzUuqAE9GAoqGHULREQAREQARGQgNQYyJmA1onJDCABmYyfWheUgB4MBTWMuiUCIiACIiACEpAaAzkT0DoxmQFaCchkp1JrERABERABERABERABERABERCBdkCgQ4d2cJO6RREQAREQAREQAREQAREQAREQgRQI/A/Fqnxrmim0TwAAAABJRU5ErkJggg==;" vertex="1" parent="1">
          <mxGeometry x="400" y="430" width="956.61" height="780" as="geometry" />
        </mxCell>
        <mxCell id="0foSG4I520p3zmjoovhV-5" style="edgeStyle=orthogonalEdgeStyle;rounded=0;orthogonalLoop=1;jettySize=auto;html=1;exitX=0;exitY=0.25;exitDx=0;exitDy=0;entryX=0;entryY=0.25;entryDx=0;entryDy=0;" edge="1" parent="1" target="0foSG4I520p3zmjoovhV-1">
          <mxGeometry relative="1" as="geometry">
            <mxPoint x="410" y="718.7692307692307" as="sourcePoint" />
          </mxGeometry>
        </mxCell>
        <mxCell id="0foSG4I520p3zmjoovhV-8" style="edgeStyle=orthogonalEdgeStyle;rounded=0;orthogonalLoop=1;jettySize=auto;html=1;exitX=0.25;exitY=1;exitDx=0;exitDy=0;entryX=0.25;entryY=1;entryDx=0;entryDy=0;" edge="1" parent="1" target="0foSG4I520p3zmjoovhV-1">
          <mxGeometry relative="1" as="geometry">
            <mxPoint x="584.8461538461538" y="1054" as="sourcePoint" />
          </mxGeometry>
        </mxCell>
        <mxCell id="0foSG4I520p3zmjoovhV-16" style="edgeStyle=orthogonalEdgeStyle;rounded=0;orthogonalLoop=1;jettySize=auto;html=1;exitX=1;exitY=0.25;exitDx=0;exitDy=0;entryX=0;entryY=0.25;entryDx=0;entryDy=0;" edge="1" parent="1" source="0foSG4I520p3zmjoovhV-1" target="0foSG4I520p3zmjoovhV-4">
          <mxGeometry relative="1" as="geometry" />
        </mxCell>
        <mxCell id="0foSG4I520p3zmjoovhV-1" value="&lt;span style=&quot;font-size: 14px;&quot;&gt;Журналирование&amp;nbsp;&lt;br&gt;бронирований&lt;/span&gt;" style="html=1;align=center;verticalAlign=top;rounded=1;absoluteArcSize=1;arcSize=10;dashed=0;whiteSpace=wrap;" vertex="1" parent="1">
          <mxGeometry x="540" y="704" width="180" height="60" as="geometry" />
        </mxCell>
        <mxCell id="0foSG4I520p3zmjoovhV-18" style="edgeStyle=orthogonalEdgeStyle;rounded=0;orthogonalLoop=1;jettySize=auto;html=1;exitX=1;exitY=0.25;exitDx=0;exitDy=0;entryX=0;entryY=0.5;entryDx=0;entryDy=0;" edge="1" parent="1" source="0foSG4I520p3zmjoovhV-2" target="0foSG4I520p3zmjoovhV-4">
          <mxGeometry relative="1" as="geometry">
            <Array as="points">
              <mxPoint x="1020" y="824" />
              <mxPoint x="1020" y="754" />
            </Array>
          </mxGeometry>
        </mxCell>
        <mxCell id="0foSG4I520p3zmjoovhV-24" style="edgeStyle=orthogonalEdgeStyle;rounded=0;orthogonalLoop=1;jettySize=auto;html=1;exitX=0;exitY=0.25;exitDx=0;exitDy=0;entryX=0;entryY=0.25;entryDx=0;entryDy=0;" edge="1" parent="1" target="0foSG4I520p3zmjoovhV-2">
          <mxGeometry relative="1" as="geometry">
            <mxPoint x="600" y="824.4347826086957" as="sourcePoint" />
          </mxGeometry>
        </mxCell>
        <mxCell id="0foSG4I520p3zmjoovhV-25" style="edgeStyle=orthogonalEdgeStyle;rounded=0;orthogonalLoop=1;jettySize=auto;html=1;exitX=0;exitY=0.75;exitDx=0;exitDy=0;entryX=0;entryY=0.75;entryDx=0;entryDy=0;" edge="1" parent="1" target="0foSG4I520p3zmjoovhV-2">
          <mxGeometry relative="1" as="geometry">
            <mxPoint x="600" y="864.4347826086957" as="sourcePoint" />
          </mxGeometry>
        </mxCell>
        <mxCell id="0foSG4I520p3zmjoovhV-2" value="&lt;span style=&quot;font-size: 14px;&quot;&gt;Журналирование выполненных задач поваров&amp;nbsp;и горничных&lt;/span&gt;" style="html=1;align=center;verticalAlign=top;rounded=1;absoluteArcSize=1;arcSize=10;dashed=0;whiteSpace=wrap;" vertex="1" parent="1">
          <mxGeometry x="690" y="804" width="200" height="80" as="geometry" />
        </mxCell>
        <mxCell id="0foSG4I520p3zmjoovhV-22" style="edgeStyle=orthogonalEdgeStyle;rounded=0;orthogonalLoop=1;jettySize=auto;html=1;exitX=1;exitY=0.5;exitDx=0;exitDy=0;entryX=0.25;entryY=1;entryDx=0;entryDy=0;" edge="1" parent="1" source="0foSG4I520p3zmjoovhV-3" target="0foSG4I520p3zmjoovhV-4">
          <mxGeometry relative="1" as="geometry">
            <Array as="points">
              <mxPoint x="1085" y="944" />
            </Array>
          </mxGeometry>
        </mxCell>
        <mxCell id="0foSG4I520p3zmjoovhV-28" style="edgeStyle=orthogonalEdgeStyle;rounded=0;orthogonalLoop=1;jettySize=auto;html=1;entryX=0;entryY=0.25;entryDx=0;entryDy=0;" edge="1" parent="1" target="0foSG4I520p3zmjoovhV-3">
          <mxGeometry relative="1" as="geometry">
            <mxPoint x="760" y="929" as="sourcePoint" />
          </mxGeometry>
        </mxCell>
        <mxCell id="0foSG4I520p3zmjoovhV-3" value="&lt;span style=&quot;font-size: 14px;&quot;&gt;Журналирование заказов расходных материалов&lt;br&gt;&lt;/span&gt;" style="html=1;align=center;verticalAlign=top;rounded=1;absoluteArcSize=1;arcSize=10;dashed=0;whiteSpace=wrap;" vertex="1" parent="1">
          <mxGeometry x="890" y="914" width="180" height="60" as="geometry" />
        </mxCell>
        <mxCell id="0foSG4I520p3zmjoovhV-32" style="edgeStyle=orthogonalEdgeStyle;rounded=0;orthogonalLoop=1;jettySize=auto;html=1;exitX=0;exitY=0;exitDx=0;exitDy=0;entryX=0.001;entryY=0.014;entryDx=0;entryDy=0;entryPerimeter=0;" edge="1" parent="1" target="0foSG4I520p3zmjoovhV-4">
          <mxGeometry relative="1" as="geometry">
            <mxPoint x="880" y="674" as="sourcePoint" />
          </mxGeometry>
        </mxCell>
        <mxCell id="0foSG4I520p3zmjoovhV-34" style="edgeStyle=orthogonalEdgeStyle;rounded=0;orthogonalLoop=1;jettySize=auto;html=1;exitX=0.75;exitY=1;exitDx=0;exitDy=0;entryX=0.75;entryY=1;entryDx=0;entryDy=0;" edge="1" parent="1" target="0foSG4I520p3zmjoovhV-4">
          <mxGeometry relative="1" as="geometry">
            <mxPoint x="1174.9565217391305" y="934.0000000000001" as="sourcePoint" />
          </mxGeometry>
        </mxCell>
        <mxCell id="0foSG4I520p3zmjoovhV-36" style="edgeStyle=orthogonalEdgeStyle;rounded=0;orthogonalLoop=1;jettySize=auto;html=1;exitX=1;exitY=0.5;exitDx=0;exitDy=0;" edge="1" parent="1" source="0foSG4I520p3zmjoovhV-4">
          <mxGeometry relative="1" as="geometry">
            <mxPoint x="1340" y="753.7878787878789" as="targetPoint" />
          </mxGeometry>
        </mxCell>
        <mxCell id="0foSG4I520p3zmjoovhV-4" value="&lt;span style=&quot;font-size: 14px;&quot;&gt;Экспорт системного&amp;nbsp;журнала&lt;/span&gt;" style="html=1;align=center;verticalAlign=top;rounded=1;absoluteArcSize=1;arcSize=10;dashed=0;whiteSpace=wrap;" vertex="1" parent="1">
          <mxGeometry x="1040" y="724" width="180" height="60" as="geometry" />
        </mxCell>
        <mxCell id="0foSG4I520p3zmjoovhV-6" value="&lt;font style=&quot;font-size: 10px;&quot;&gt;Данные о&lt;br&gt;бронированиях&lt;br&gt;&lt;/font&gt;" style="text;html=1;strokeColor=none;fillColor=none;align=center;verticalAlign=middle;whiteSpace=wrap;rounded=0;rotation=0;" vertex="1" parent="1">
          <mxGeometry x="420" y="709" width="110" height="15" as="geometry" />
        </mxCell>
        <mxCell id="0foSG4I520p3zmjoovhV-10" value="" style="endArrow=classic;html=1;rounded=0;entryX=0.5;entryY=1;entryDx=0;entryDy=0;" edge="1" parent="1" target="0foSG4I520p3zmjoovhV-3">
          <mxGeometry width="50" height="50" relative="1" as="geometry">
            <mxPoint x="980" y="1004" as="sourcePoint" />
            <mxPoint x="1000" y="1014" as="targetPoint" />
          </mxGeometry>
        </mxCell>
        <mxCell id="0foSG4I520p3zmjoovhV-11" value="" style="endArrow=classic;html=1;rounded=0;entryX=0.5;entryY=1;entryDx=0;entryDy=0;" edge="1" parent="1" target="0foSG4I520p3zmjoovhV-4">
          <mxGeometry width="50" height="50" relative="1" as="geometry">
            <mxPoint x="740" y="1004" as="sourcePoint" />
            <mxPoint x="1140" y="1004" as="targetPoint" />
            <Array as="points">
              <mxPoint x="1130" y="1004" />
            </Array>
          </mxGeometry>
        </mxCell>
        <mxCell id="0foSG4I520p3zmjoovhV-12" value="" style="endArrow=classic;html=1;rounded=0;entryX=0.25;entryY=1;entryDx=0;entryDy=0;" edge="1" parent="1" target="0foSG4I520p3zmjoovhV-2">
          <mxGeometry width="50" height="50" relative="1" as="geometry">
            <mxPoint x="585" y="1004" as="sourcePoint" />
            <mxPoint x="710" y="874" as="targetPoint" />
            <Array as="points">
              <mxPoint x="740" y="1004" />
            </Array>
          </mxGeometry>
        </mxCell>
        <mxCell id="0foSG4I520p3zmjoovhV-13" value="&lt;font style=&quot;font-size: 10px;&quot;&gt;Система&lt;br&gt;&lt;/font&gt;" style="text;html=1;strokeColor=none;fillColor=none;align=center;verticalAlign=middle;whiteSpace=wrap;rounded=0;rotation=0;" vertex="1" parent="1">
          <mxGeometry x="590" y="990" width="110" height="15" as="geometry" />
        </mxCell>
        <mxCell id="0foSG4I520p3zmjoovhV-17" value="&lt;font style=&quot;font-size: 10px;&quot;&gt;Журнал бронирований&lt;br&gt;&lt;/font&gt;" style="text;html=1;strokeColor=none;fillColor=none;align=center;verticalAlign=middle;whiteSpace=wrap;rounded=0;rotation=0;" vertex="1" parent="1">
          <mxGeometry x="735" y="704" width="110" height="15" as="geometry" />
        </mxCell>
        <mxCell id="0foSG4I520p3zmjoovhV-19" value="&lt;font style=&quot;font-size: 10px;&quot;&gt;Журнал выполнения задач поваров и горничных&lt;br&gt;&lt;/font&gt;" style="text;html=1;strokeColor=none;fillColor=none;align=center;verticalAlign=middle;whiteSpace=wrap;rounded=0;rotation=0;" vertex="1" parent="1">
          <mxGeometry x="900" y="804" width="110" height="15" as="geometry" />
        </mxCell>
        <mxCell id="0foSG4I520p3zmjoovhV-23" value="&lt;font style=&quot;font-size: 10px;&quot;&gt;Журнал заказов расходных материалов&lt;br&gt;&lt;/font&gt;" style="text;html=1;strokeColor=none;fillColor=none;align=center;verticalAlign=middle;whiteSpace=wrap;rounded=0;rotation=-90;" vertex="1" parent="1">
          <mxGeometry x="1020" y="854" width="120" height="20" as="geometry" />
        </mxCell>
        <mxCell id="0foSG4I520p3zmjoovhV-26" value="&lt;font style=&quot;font-size: 10px;&quot;&gt;Список задач&lt;br&gt;поваров&lt;br&gt;&lt;/font&gt;" style="text;html=1;strokeColor=none;fillColor=none;align=center;verticalAlign=middle;whiteSpace=wrap;rounded=0;rotation=0;" vertex="1" parent="1">
          <mxGeometry x="590" y="819" width="110" height="15" as="geometry" />
        </mxCell>
        <mxCell id="0foSG4I520p3zmjoovhV-27" value="&lt;font style=&quot;font-size: 10px;&quot;&gt;Список задач&lt;br&gt;горничных&lt;br&gt;&lt;/font&gt;" style="text;html=1;strokeColor=none;fillColor=none;align=center;verticalAlign=middle;whiteSpace=wrap;rounded=0;rotation=0;" vertex="1" parent="1">
          <mxGeometry x="590" y="856.5" width="110" height="15" as="geometry" />
        </mxCell>
        <mxCell id="0foSG4I520p3zmjoovhV-29" value="&lt;font style=&quot;font-size: 10px;&quot;&gt;Данные о заказе расходных материалов&lt;br&gt;&lt;/font&gt;" style="text;html=1;strokeColor=none;fillColor=none;align=center;verticalAlign=middle;whiteSpace=wrap;rounded=0;rotation=0;" vertex="1" parent="1">
          <mxGeometry x="760" y="922" width="120" height="15" as="geometry" />
        </mxCell>
        <mxCell id="0foSG4I520p3zmjoovhV-33" value="&lt;font style=&quot;font-size: 10px;&quot;&gt;Идентификатор&lt;br&gt;системного&lt;br&gt;администратора&lt;br&gt;&lt;/font&gt;" style="text;html=1;strokeColor=none;fillColor=none;align=center;verticalAlign=middle;whiteSpace=wrap;rounded=0;rotation=0;" vertex="1" parent="1">
          <mxGeometry x="900" y="660" width="110" height="15" as="geometry" />
        </mxCell>
        <mxCell id="0foSG4I520p3zmjoovhV-35" value="&lt;font style=&quot;font-size: 10px;&quot;&gt;Системный&lt;br&gt;администратор&lt;br&gt;&lt;/font&gt;" style="text;html=1;strokeColor=none;fillColor=none;align=center;verticalAlign=middle;whiteSpace=wrap;rounded=0;rotation=-90;" vertex="1" parent="1">
          <mxGeometry x="1110" y="851.5" width="120" height="20" as="geometry" />
        </mxCell>
        <mxCell id="0foSG4I520p3zmjoovhV-37" value="&lt;font style=&quot;font-size: 10px;&quot;&gt;Журнал работы&lt;br&gt;системы&lt;br&gt;&lt;/font&gt;" style="text;html=1;strokeColor=none;fillColor=none;align=center;verticalAlign=middle;whiteSpace=wrap;rounded=0;rotation=0;" vertex="1" parent="1">
          <mxGeometry x="1220" y="750.5" width="110" height="7" as="geometry" />
        </mxCell>
        <mxCell id="0foSG4I520p3zmjoovhV-41" value="51" style="text;html=1;strokeColor=none;fillColor=none;align=center;verticalAlign=middle;whiteSpace=wrap;rounded=0;" vertex="1" parent="1">
          <mxGeometry x="700" y="739" width="10" height="30" as="geometry" />
        </mxCell>
        <mxCell id="0foSG4I520p3zmjoovhV-42" value="53" style="text;html=1;strokeColor=none;fillColor=none;align=center;verticalAlign=middle;whiteSpace=wrap;rounded=0;" vertex="1" parent="1">
          <mxGeometry x="1050" y="950" width="10" height="30" as="geometry" />
        </mxCell>
        <mxCell id="0foSG4I520p3zmjoovhV-43" value="52" style="text;html=1;strokeColor=none;fillColor=none;align=center;verticalAlign=middle;whiteSpace=wrap;rounded=0;" vertex="1" parent="1">
          <mxGeometry x="873.3" y="856.5" width="10" height="30" as="geometry" />
        </mxCell>
        <mxCell id="0foSG4I520p3zmjoovhV-44" value="54" style="text;html=1;strokeColor=none;fillColor=none;align=center;verticalAlign=middle;whiteSpace=wrap;rounded=0;" vertex="1" parent="1">
          <mxGeometry x="1200" y="757.5" width="10" height="30" as="geometry" />
        </mxCell>
      </root>
    </mxGraphModel>
  </diagram>
  <diagram id="30CSTh-y9SVbLgZfz-_A" name="Страница — 2">
    <mxGraphModel dx="5413" dy="2800" grid="1" gridSize="10" guides="1" tooltips="1" connect="1" arrows="1" fold="1" page="1" pageScale="1" pageWidth="3300" pageHeight="2339" math="0" shadow="0">
      <root>
        <mxCell id="0" />
        <mxCell id="1" parent="0" />
      </root>
    </mxGraphModel>
  </diagram>
</mxfile>
